<svg version="1.2" xmlns="http://www.w3.org/2000/svg" viewBox="86 0 60.18000000000001 56.4" width="200" height="186.88524590163937">
	<style>
		.s0 { fill: #ed1f24 } 
		.s1 { fill: #ffffff } 
	</style>
	<g id="Layer 1">
		<path class="s0" d="m85.72 0h60.45v56.4h-60.45zm18.28 9.77c-3.4 1.24-6.42 3.31-8.8 6.04-1.88 2.17-2.93 4.94-2.98 7.81 0.05 2.7 0.99 5.3 2.68 7.4 1.98 2.45 4.51 4.39 7.39 5.67q-0.72-0.95-1.64-1.73c-2.12-1.46-3.85-3.41-5.07-5.67-1.21-2.27-1.66-4.87-1.29-7.42 0.35-2.26 1.3-4.39 2.74-6.18 1.93-2.37 4.39-4.26 7.18-5.5 3.02-1.35 6.26-2.14 9.57-2.35q2.38-0.11 4.74 0.15 2.2 0.18 4.3 0.86c-3.8 0.13-7.54 1.01-11 2.6-3.13 1.39-5.57 3.97-6.77 7.18-0.75 2.45-0.84 5.04-0.27 7.53-1.67 0.09-3.2 0.94-4.17 2.3-0.88 1.4-1.03 3.14-0.38 4.66 0.69 1.55 1.75 2.9 3.08 3.95 2.49 2.08 5.36 3.65 7.9 5.67 0.9 0.63 1.64 1.47 2.13 2.45 0.45 0.86 0.39 1.89-0.15 2.69-0.86 1.14-2.27 1.57-3.52 2.13 1.38 0.04 2.75-0.21 4.03-0.74 1.2-0.49 2.14-1.46 2.58-2.69 0.43-1.42 0.2-2.97-0.64-4.2-1.35-1.71-3-3.16-4.88-4.28-2.42-1.72-5.1-3.18-7.09-5.44-1.08-1.09-1.51-2.66-1.15-4.15 1.54-0.27 2.76 0.93 3.55 2.1 0.8 0.97 0.95 2.32 1.88 3.19 0.72 0.06 1.43-0.15 2-0.59 0.71-0.78 1.24-1.7 1.54-2.71 0.14-0.72 0.22-1.69-0.46-2.18-0.88-0.7-2.07-1.18-2.45-2.33-0.78-2.18-0.94-4.53-0.47-6.8 0.67-2.38 2.1-4.47 4.07-5.95 2.57-1.96 5.56-3.3 8.73-3.93q1.01-0.11 1.98-0.4 1.4 0.23 2.71 0.82c3.68 1.38 6.85 3.86 9.08 7.11 1.67 2.52 2.35 5.56 1.92 8.55-0.52 3.05-2.05 5.84-4.34 7.92-4.09 3.65-9.32 5.78-14.8 6.02-1.07 0.1-2.16-0.04-3.23 0.1 0.55 0.04 1.1 0 1.64 0.02 3.43 0.06 6.84-0.5 10.07-1.65 3.06-1.02 5.87-2.66 8.26-4.82 2-1.79 3.44-4.13 4.13-6.73 0.57-2.35 0.36-4.83-0.6-7.05-1.11-2.47-2.85-4.61-5.04-6.21-2.73-2.01-5.84-3.46-9.13-4.27-6.48-1.66-13.31-1.29-19.56 1.06m7.09 0.63c-2.74 1.05-5.26 2.58-7.45 4.52q-1.45 1.41-2.53 3.14c-1.09 1.61-1.91 3.4-2.41 5.28-0.68 2.83-0.52 5.79 0.45 8.53l0.19-0.25c-0.03-1.02 0.17-2.03 0.56-2.98 0.67-1.21 1.71-2.16 2.98-2.7-0.2-3.9 1-7.75 3.4-10.84 1.92-2.1 4.34-3.69 7.04-4.63 2.35-0.94 4.83-1.57 7.35-1.85q-0.28-0.05-0.57-0.08c-3.09 0-6.15 0.63-9 1.83m5.22 1.18c-1.22 0.71-1.97 2.01-1.98 3.42 0.16 1.46 0.92 2.78 2.1 3.65 2.37 2.06 5.37 3.39 7.33 5.92 1.29 1.57 1.77 3.65 1.29 5.62-0.52 1.74-1.64 3.24-3.15 4.24-2.73 1.84-5.92 2.89-9.21 3.01-0.78 0.04-1.56-0.06-2.34 0 1.49 0.52 3.07 0.75 4.65 0.67 3.39-0.04 6.71-0.98 9.61-2.74 2.2-1.32 3.81-3.44 4.49-5.92 0.57-2.42-0.04-4.96-1.63-6.86-1.98-2.44-4.81-3.91-7.31-5.72-0.85-0.56-1.52-1.35-1.95-2.27-0.32-0.84-0.15-1.78 0.44-2.45 1.42-1.32 3.13-2.29 4.99-2.82-2.6 0.02-5.15 0.79-7.32 2.23m-5.51 6.07c-0.14 1.39 0.31 2.77 1.25 3.8 1.93 2.15 4.84 3.08 6.77 5.23 1 1.09 1.44 2.58 1.21 4.05-0.32 1.66-1.39 3.07-2.9 3.82l0.04-0.21c0.95-0.79 1.67-1.83 2.08-3 0.42-1.47-0.08-3.05-1.28-4-1.75-1.26-4.16-1.03-5.64 0.54-0.65 0.67-0.72 1.71-0.17 2.47 0.45 0.6 1.22 0.9 1.59 1.57 0.4 0.88 0.22 1.91-0.45 2.6-0.71 0.63-1.65 0.92-2.59 0.79-2.35-0.33-4.5-1.5-6.04-3.31-0.76-0.82-1.22-1.86-1.99-2.67-0.05 1.12 0.35 2.21 1.12 3.02 1.55 1.6 3.33 2.97 5.29 4.04q0.64 0.47 1.42 0.6c2.99 0.19 5.97-0.49 8.58-1.97 1.73-0.94 3.06-2.47 3.77-4.31 0.72-2.05 0.34-4.32-1.01-6.02-1.83-2.31-4.65-3.43-6.8-5.37-1.2-0.96-1.88-2.42-1.86-3.95 0.28-1.48 1.12-2.78 2.35-3.65-2.57 0.93-4.39 3.22-4.72 5.93z"/>
		<g>
			<path class="s1" d="m104 9.77c6.26-2.36 13.09-2.73 19.56-1.06 3.29 0.81 6.4 2.26 9.13 4.27 2.19 1.6 3.93 3.74 5.04 6.21 0.96 2.22 1.17 4.7 0.6 7.05-0.7 2.6-2.13 4.93-4.13 6.73-2.39 2.16-5.2 3.8-8.26 4.82-3.23 1.15-6.64 1.7-10.07 1.65-0.55-0.01-1.1 0.02-1.64-0.02 1.07-0.14 2.15 0 3.22-0.1 5.48-0.24 10.71-2.37 14.8-6.02 2.29-2.08 3.81-4.87 4.34-7.92 0.43-2.99-0.26-6.03-1.92-8.55-2.23-3.24-5.4-5.72-9.08-7.11q-1.3-0.58-2.71-0.82-0.98 0.29-1.98 0.4c-3.17 0.63-6.16 1.97-8.73 3.93-1.97 1.49-3.4 3.58-4.07 5.95-0.47 2.27-0.31 4.62 0.47 6.8 0.38 1.15 1.57 1.63 2.45 2.33 0.68 0.49 0.6 1.45 0.46 2.18-0.3 1.01-0.82 1.94-1.53 2.71-0.57 0.44-1.28 0.66-2 0.59-0.93-0.87-1.08-2.23-1.88-3.19-0.79-1.17-2.01-2.37-3.55-2.1-0.36 1.49 0.08 3.06 1.15 4.15 1.99 2.26 4.66 3.72 7.09 5.44 1.87 1.12 3.53 2.56 4.88 4.28 0.84 1.23 1.07 2.78 0.64 4.2-0.44 1.22-1.38 2.2-2.58 2.69-1.27 0.53-2.65 0.78-4.03 0.74 1.25-0.55 2.66-0.99 3.52-2.13 0.54-0.8 0.6-1.83 0.15-2.69-0.5-0.98-1.23-1.82-2.13-2.45-2.54-2.02-5.41-3.59-7.9-5.67-1.34-1.04-2.39-2.4-3.08-3.95-0.64-1.52-0.5-3.26 0.38-4.66 0.97-1.36 2.51-2.2 4.17-2.29-0.57-2.49-0.48-5.09 0.27-7.53 1.2-3.2 3.64-5.79 6.77-7.17 3.46-1.59 7.2-2.47 11-2.6q-2.1-0.68-4.3-0.87-2.37-0.26-4.74-0.15c-3.3 0.2-6.55 1-9.57 2.35-2.79 1.24-5.25 3.13-7.18 5.5-1.44 1.79-2.39 3.92-2.75 6.19-0.37 2.55 0.08 5.15 1.29 7.42 1.22 2.27 2.96 4.21 5.07 5.67q0.92 0.77 1.64 1.73c-2.88-1.28-5.41-3.22-7.39-5.67-1.69-2.1-2.63-4.7-2.68-7.4 0.05-2.87 1.11-5.63 2.98-7.81 2.38-2.72 5.4-4.8 8.8-6.04z"/>
			<path class="s1" d="m111.1 10.4c2.85-1.2 5.91-1.83 9-1.83q0.28 0.02 0.57 0.08c-2.52 0.28-4.99 0.91-7.35 1.85-2.69 0.93-5.1 2.52-7.02 4.62-2.4 3.09-3.61 6.93-3.41 10.84-1.27 0.54-2.31 1.49-2.98 2.7-0.39 0.94-0.58 1.96-0.56 2.97l-0.19 0.25c-0.98-2.74-1.13-5.7-0.46-8.53 0.5-1.88 1.31-3.67 2.41-5.28q1.07-1.72 2.53-3.14c2.19-1.94 4.72-3.47 7.46-4.53z"/>
			<path class="s1" d="m116.32 11.56c2.17-1.44 4.72-2.21 7.32-2.23-1.87 0.53-3.58 1.49-4.99 2.82-0.6 0.67-0.77 1.62-0.44 2.45 0.43 0.92 1.1 1.71 1.95 2.27 2.5 1.81 5.33 3.28 7.31 5.72 1.6 1.9 2.2 4.44 1.63 6.86-0.68 2.48-2.29 4.6-4.49 5.92-2.9 1.75-6.22 2.7-9.61 2.74-1.58 0.08-3.16-0.15-4.65-0.68 0.78-0.07 1.56 0.03 2.34 0 3.29-0.12 6.48-1.17 9.21-3.01 1.52-1 2.63-2.5 3.16-4.24 0.48-1.97 0-4.06-1.29-5.62-1.96-2.53-4.95-3.86-7.33-5.92-1.18-0.87-1.94-2.19-2.1-3.65 0.02-1.41 0.77-2.7 1.98-3.43z"/>
			<path class="s1" d="m110.82 17.61c0.33-2.71 2.16-5.01 4.73-5.93-1.23 0.87-2.07 2.18-2.35 3.65-0.02 1.53 0.67 2.99 1.86 3.95 2.15 1.94 4.97 3.07 6.8 5.37 1.35 1.7 1.73 3.97 1.01 6.02-0.7 1.84-2.04 3.37-3.77 4.31-2.61 1.48-5.59 2.16-8.58 1.97q-0.78-0.13-1.42-0.6c-1.96-1.07-3.74-2.43-5.29-4.04-0.77-0.81-1.17-1.91-1.12-3.02 0.77 0.81 1.23 1.85 1.99 2.67 1.54 1.8 3.69 2.98 6.04 3.31 0.94 0.12 1.88-0.17 2.59-0.79 0.68-0.69 0.86-1.72 0.46-2.6-0.38-0.67-1.14-0.97-1.59-1.57-0.55-0.76-0.48-1.8 0.17-2.47 1.48-1.57 3.89-1.8 5.64-0.54 1.19 0.95 1.7 2.53 1.28 4-0.41 1.17-1.13 2.21-2.08 3l-0.04 0.21c1.51-0.75 2.58-2.17 2.9-3.82 0.23-1.46-0.22-2.95-1.21-4.04-1.93-2.15-4.84-3.08-6.77-5.23-0.93-1.03-1.39-2.41-1.25-3.8z"/>
		</g>
	</g>
</svg>