<svg version="1.2" xmlns="http://www.w3.org/2000/svg" viewBox="0 0 728 692" width="728" height="692"><defs><clipPath clipPathUnits="userSpaceOnUse" id="cp1"><path d="m-136-54h1000v1000h-1000z"/></clipPath><linearGradient id="P" gradientUnits="userSpaceOnUse"/><linearGradient id="g1" x2="1" href="#P" gradientTransform="matrix(184.954,0,0,172.527,55.978,389.23)"><stop offset=".26" stop-color="#867c7c"/><stop offset=".52" stop-color="#5e5656"/><stop offset=".89" stop-color="#3f3b3b"/></linearGradient><linearGradient id="g2" x2="1" href="#P" gradientTransform="matrix(188.888,188.889,-281.393,281.391,125.407,252.877)"><stop offset=".34" stop-color="#867c7c"/><stop offset=".61" stop-color="#5e5656"/><stop offset=".96" stop-color="#3f3b3b"/></linearGradient><linearGradient id="g3" x2="1" href="#P" gradientTransform="matrix(100.314,-164.296,223.115,136.227,399.703,355.094)"><stop stop-color="#3f3b3b"/><stop offset=".36" stop-color="#5e5656"/><stop offset=".67" stop-color="#867c7c"/></linearGradient><linearGradient id="g4" x2="1" href="#P" gradientTransform="matrix(58.472,-64.51,291.979,264.651,523.831,222.826)"><stop stop-color="#3f3b3b"/><stop offset=".26" stop-color="#5e5656"/><stop offset=".5" stop-color="#867c7c"/></linearGradient><linearGradient id="g5" x2="1" href="#P" gradientTransform="matrix(0,177.166,-84.75,0,427.269,474.176)"><stop stop-color="#3f3b3b"/><stop offset=".25" stop-color="#5e5656"/><stop offset=".72" stop-color="#867c7c"/></linearGradient><linearGradient id="g6" x2="1" href="#P" gradientTransform="matrix(0,-115.25,103.621,0,327.154,599.813)"><stop offset=".07" stop-color="#867c7c"/><stop offset=".33" stop-color="#5e5656"/><stop offset=".73" stop-color="#3f3b3b"/></linearGradient><linearGradient id="g7" x2="1" href="#P" gradientTransform="matrix(25.741,-76.935,55.175,18.46,357.266,477.471)"><stop offset=".2" stop-color="#867c7c"/><stop offset=".54" stop-color="#5e5656"/><stop offset=".9" stop-color="#3f3b3b"/></linearGradient><linearGradient id="g8" x2="1" href="#P" gradientTransform="matrix(139.555,-174.13,43.945,35.219,234.914,591.148)"><stop stop-color="#867c7c"/><stop offset=".23" stop-color="#5e5656"/><stop offset=".96" stop-color="#3f3b3b"/></linearGradient><linearGradient id="g9" x2="1" href="#P" gradientTransform="matrix(53.704,32.601,-26.226,43.202,306.917,329.887)"><stop offset=".23" stop-color="#867c7c"/><stop offset=".49" stop-color="#5e5656"/><stop offset=".92" stop-color="#3f3b3b"/></linearGradient><linearGradient id="g10" x2="1" href="#P" gradientTransform="matrix(119.352,-149.491,39.098,31.215,253.592,540.132)"><stop offset=".09" stop-color="#867c7c"/><stop offset=".47" stop-color="#5e5656"/><stop offset=".96" stop-color="#3f3b3b"/></linearGradient></defs><style>.a{fill:url(#g1)}.b{fill:url(#g2)}.c{fill:url(#g3)}.d{fill:url(#g4)}.e{fill:#8d8484}.f{fill:url(#g5)}.g{fill:url(#g6)}.h{fill:url(#g7)}.i{fill:url(#g8)}.j{fill:url(#g9)}.k{fill:url(#g10)}.l{fill:#f8f8f8}</style><g clip-path="url(#cp1)"><path class="a" d="m56 303l120.1 21.4 64.8 87.7-74.8 63.4-62.2-3.6-24.5-36z"/><path class="b" d="m350.6 196.7l22.8 144.5-15.7 37.7-192.4 195.2-6.5-12.7 92.8-158.3-103.4-149.7 10.9-50.9z"/><path class="c" d="m361.6 35.9l14.1 318.5 78.8 81.2 101.4 45.2 44.8-104.4-168.7-226.1-33-87.2z"/><path class="d" d="m681.1 299.1l-68.5 13.3-187.3-151.6-7.6-70.7h40.1z"/><path class="e" d="m245 510.1l-36.2 36.2 148.9-165.7-1.5 8.6z"/><path class="f" d="m469.6 651.3l-57.2-177.1-27.5 26.6 31 125.3z"/><path class="g" d="m267.5 608.1l55.8-124.8 20 5.5 43.5 124-77.4 3.3z"/><path class="h" d="m319.6 480.1l39.1-81.1 52 9.1-2.6 27.3z"/><path class="i" d="m254.7 612.8l104.6-211-8.5-1.6-132.3 176.4z"/><path class="e" d="m218.5 576.6l-36.2 36.2 116.5-145.7-9.3 27.2z"/><path class="j" d="m337.8 319.5l27.2 27-10.8 12.2-52.6-3 2.9-28.6z"/><path class="k" d="m245 510.1l116.6-131.3-3.9 20.5-76.5 147-26.6-4z"/><path class="l" d="m348.8 207.4c-1.4 5.2-16.8 61.7-17.2 62.7-2.4 5.5-2.8 9.9-13.9 8.3-4.9-0.7-136-39-138.5-39.7-3.2-0.8-5.4 1.3-2.5 4.8 2.4 2.9 122.5 152.3 124.9 155.3 4 5.1 4 6.7 0 11.8-1.4 1.6-133.5 160.2-135.6 162.8-2.2 2.7-4.1 1.7-6.7-0.4-1.7-1.4-118.3-92.7-121.1-95.3-1.9-1.7-2-3.2-1.6-7 0.1-1.7 16.3-163.8 16.4-165.1 0.3-2.8 1.6-3.2 4.3-2.2 1.3 0.4 43 15 44.5 15.7 1.6 0.9 1.4 3.2 1.4 5.5 0 3.3 2.5 118.1 2.6 120.9 0.1 2 0.3 3.3 2 4.3 1.6 0.9 34.9 16.2 37.2 17.5 2.3 1.3 3.7 1 5.3-0.2 1.7-1.1 68.2-53.1 69-53.7 4.8-3.6 3.9-5.2 1.4-9-1.3-1.9-151-191.3-151.9-193-2.3-4.5-2.5-5.8-0.7-8.8 1.1-1.7 26.5-48.1 27.6-49.7 2.4-3.5 3.8-3.9 7-3.4 2.8 0.4 165.4 35.5 167.9 36.1 6.1 1.2 6.6-0.6 6.6-4.6 0-4.1-2.2-117.1-2.7-145.3-0.1-3.5 2.7-6.4 6.2-6.4h46.3c3.2 0 5.8 2.4 6.2 5.6 4 37 16.5 156.1 17.4 161.8 0.6 4.1-0.4 5.9-1.8 10.7z"/><path class="l" d="m686.9 375.5c-1.2 1.7-116.1 196.2-117.6 197.8-3.4 3.7-5.4 3.5-9.4 0.6-2.6-1.8-124.3-101.5-125.7-102.6-4.8-4-6.1-3-8.9-0.4-1.7 1.5-26 26.2-26.9 27.1-1 1-2 2.2-1 5.2 1 2.9 64.6 133.2 70.5 144.1 1.9 3.6 4 8.1-1.6 8.1h-163.9c-5 0-5.7 0-9.2-4.4-1.1-1.5-24.1-37.1-25.2-39-1.5-2.4-1.2-4.8 1.7-5.4 2.4-0.5 92.5-2.6 94-3 4.8-1 4-2.5 2-8-0.6-1.5-45.3-110.6-45.7-111.8-1.1-3.1-0.5-4.2 1.2-5.7 1.2-1 75.3-58.9 76.7-60.2 1.1-1.1 1-1.9-0.5-2.1-1.4-0.3-36.7-6.6-38.2-6.9-2.5-0.6-3-1.8-3.2-4.2-0.1-1.4-3.9-60.7-4-62.1-0.3-5.5-0.7-6.9 5.3-8.4 5.2-1.3 128.3-26.1 130.1-26.4 2.6-0.5 4.4-0.2 5.7 3.9 0.6 1.9 18.2 61 18.8 63.1 0.8 3.3 0.9 4-0.9 5.9-1.3 1.2-37.2 34.3-38.3 35.4-2.4 2.6-1.4 4.1 0.7 5.4 1.7 1 59.7 36.4 62.4 38 2.1 1.2 3.7 1.2 4.4-0.1 1.2-2 52.2-70.3 53.1-72 1.1-1.8 1-2.8 0-4-1.6-2.1-192.2-205-216-231.5-1.7-1.8-2.8-4.2-3.1-6.7l-12.6-109.3c-0.4-3.5 2.4-6.6 5.9-6.6h43.8c3 0 6 0.8 8.6 2.3 44 25.7 215.6 125.9 218.1 127.9 3 2.2 3.7 4.2 4.5 6.2 0.6 1.5 38.9 127.5 39.4 129.2 0.6 2.1 1 7-4.8 2.2l-242.1-198.8c-1.7-1.4-4.3 0.1-3.8 2.3 2.4 10.7 7 31.7 9.1 41 0.7 3.1 2.2 5.8 4.5 7.9 57.9 54.4 240.1 218.2 242 220 2.3 2.1 1.3 3.9 0 6z"/><path class="l" d="m301.6 283.3l-36.2 36.2 36.2 36.2 36.2-36.2z"/><path class="l" d="m245 510.1l-36.2 36.2 36.2 36.2 36.2-36.2z"/><path class="l" d="m218.5 576.6l-36.2 36.2 36.2 36.2 36.2-36.2z"/><path class="l" d="m1.1 851.5l-8.4-8.6-10 9.9 9.9 9.9 8.4-8.5 8.5 8.5 10-9.8-9.9-9.7z"/><path class="l" d="m61.7 829.1l9.8 9.7 10-9.7-9.9-9.7z"/><path class="l" d="m66.9 764v30.8h-12.1q-6.3 0-16.6-2.9-10.3-2.9-21.8-7.4l-0.6 0.5-1.6 16.1q7.6 1.7 14.7 4.5 7.1 2.8 11.3 6-5.7 4.6-15 6.8-9.2 2.2-20.8 2.2-9.1 0-15-1.9-5.8-2-8.7-6.6-2.9-4.5-2.9-12.1 0-5.7 2.1-14.7l-11.3-2.4q-2 5.1-3.3 11.6-1.3 6.4-1.3 11 0 16.2 10 23.8 10 7.6 27.4 7.6 11.4 0 22.4-2.9 11-2.9 18.7-8.9 7.7-6 9-15.1h32v-48.4l-0.9-0.4-15.8 2.8z"/><path class="l" d="m227.5 734.8v60h-29.7q10.1-8.9 10.1-20 0-4.9-2.3-9-2.3-4.2-7.6-6.8-5.2-2.5-13.8-2.5-6.5 0-13.6 1.6-7.2 1.7-13.7 4.5l-3.7 16.3 0.5 1.2q0.4 0.2 0.9 0.7 0.5 0.5 1.3 1 4.7 4 7.2 6.3 2.5 2.3 5.1 5.4-8.7 1.3-18.1 1.3h-16q-0.5-6.5-2.9-14.6-2.5-8-7.6-18.5h-0.5l-11.9 15.7q4.5 6.1 8.2 12.9 3.7 6.8 5 11.3-4 4.8-13.3 10.2-9.3 5.3-19.3 8.6l-0.2 0.6 11.8 13.7q10-4.3 17.5-10.8 7.6-6.6 11-13.9h16.6q14.1 0 27.4-3.9l1.4 3.9h66.8v-77.6l-0.9-0.4-15.7 2.8zm-37.7 50.2q-3.3 3-9.6 5.3-6.7-8.8-14.5-15.1 4.3-1.2 8.6-1.9 4.4-0.7 8.1-0.7 5.5 0 8.1 1.9 2.7 1.8 2.7 4.5 0 3-3.4 6z"/><path class="l" d="m259 734.8v75.2h16.6v-77.6l-0.8-0.4z"/><path class="l" d="m361 758.8l-9.9-9.8-10 9.8 9.9 9.7z"/><path class="l" d="m380.7 762.6h-0.9l-13.2 14.5q4.7 9.2 8.4 18.8 3.8 9.5 4.3 13.9-4.3 4.3-11.5 7.1-7.2 2.7-14.9 2.7-21.5 0-21.5-19.6 0-3.4 0.6-7 0.6-3.6 2-8.5l-11-2.4q-2.7 6.3-4.1 12.5-1.4 6.3-1.4 10.9 0 10.3 4.2 17.3 4.2 7.1 11.7 10.6 7.6 3.5 17.7 3.5 12.3 0 21.2-4.9 9-4.9 13.8-13.5 4.8-8.5 4.8-19.1 0-7.2-2.5-16-2.5-8.9-7.7-20.8z"/><path class="l" d="m490.6 761.6l-0.9-0.4-15.8 2.8v30.8h-26.1q-0.1-8.5-3.1-16.1-2.9-7.6-7.7-12.3-4.8-4.7-10.6-4.7c-3.8 0-7.3 1.6-10.6 4.8q-5 4.8-8.1 11.9-3.1 7-3.1 13 0 10 7 14.3 7 4.3 17.9 4.3h2.9q-4.1 4.2-12.3 7.4-8.3 3.1-21.1 5.8l-0.3 0.6 11.8 14.3q12.3-3.8 21.4-11 9.1-7.2 13.1-17.1h45.6v-48.4zm-59.1 33.2q-13.8 0-16.9-4.9 1.2-4.8 4-8.1 2.9-3.4 5.9-3.4 2.3 0 4.6 2.1 2.4 2.1 4.2 5.8 1.8 3.7 2.5 8.4h-4.3z"/><path class="l" d="m476.1 827.7l-8.5-8.6-9.9 9.9 9.8 9.8 8.5-8.4 8.4 8.4 10-9.7-9.8-9.7z"/><path class="l" d="m536 744.8l-9.8-9.7-10 9.7 9.9 9.8z"/><path class="l" d="m593 737.5l-9.8-9.7-10 9.7 9.9 9.8z"/><path class="l" d="m680 743l8.5 8.5 10-9.8-9.9-9.7-8.5 8.3-8.4-8.5-10 9.8 9.9 9.9z"/><path class="l" d="m712.4 734.8v60h-23.9v-33.2l-0.9-0.4-15.8 2.8v30.8h-29.1v-62.4l-0.9-0.4-15.7 2.8v60h-21q0.1-1.7 0.1-4.9 0-10.1-3.1-17.6-3-7.4-8.1-11.3-5.1-4-11-4c-3.9 0-7.8 1.3-11.2 4q-5 3.9-8 9.9-2.9 5.9-2.9 11.4 0 7 3.8 12.5h-23.8q-0.5-6.6-2.9-14.6-2.5-8-7.6-18.5h-0.5l-11.9 15.6q4.5 6.2 8.2 13 3.7 6.8 5 11.3-4 4.8-13.3 10.1-9.3 5.4-19.3 8.7l-0.2 0.6 11.8 13.7q10-4.3 17.5-10.9 7.6-6.5 11-13.8h190.4v-77.6l-0.9-0.4-15.8 2.8zm-119.6 60q-7.6-0.4-13.3-3.4-5.8-3-7.5-9.1 0.3-2.1 1.8-4.4 1.4-2.2 3.6-3.7 2.2-1.5 4.4-1.5 3.3 0 5.9 2.6 2.5 2.6 3.9 6.7 1.4 4.2 1.4 8.7 0 2.8-0.2 4.1z"/><path class="l" d="m759.7 732l-15.8 2.8v75.2h16.7v-77.6z"/></g></svg>