<?xml version="1.0" encoding="UTF-8"?>
<svg xmlns="http://www.w3.org/2000/svg" xmlns:xlink="http://www.w3.org/1999/xlink" width="154px" height="316px" viewBox="0 0 154 318" version="1.1">
<g id="surface1">
<path style=" stroke:none;fill-rule:nonzero;fill:rgb(85.882353%,63.529412%,0%);fill-opacity:1;" d="M 98.703125 227.386719 C 98.320312 227.578125 98.191406 228.214844 98.449219 229.109375 C 98.703125 230.003906 100.171875 233.835938 100.171875 233.835938 C 101.195312 236.710938 102.984375 240.035156 105.351562 241.757812 C 107.910156 243.546875 109.1875 242.910156 109.699219 242.71875 C 110.082031 242.527344 111.679688 241.503906 111.105469 238.882812 C 110.464844 236.136719 110.144531 235.371094 109.632812 234.347656 C 109.125 233.328125 108.484375 232.6875 108.101562 232.878906 C 107.84375 232.941406 108.035156 233.835938 108.035156 234.414062 C 108.035156 235.433594 107.652344 236.203125 106.820312 236.585938 C 106.054688 236.902344 104.265625 237.542969 102.859375 235.050781 C 101.707031 233.007812 100.683594 230.324219 100.238281 229.238281 C 99.917969 228.40625 99.34375 227.320312 98.832031 227.320312 C 98.832031 227.320312 98.765625 227.386719 98.703125 227.386719 Z M 58.8125 234.859375 L 67.316406 241.949219 L 75.5625 231.855469 L 67.125 224.703125 C 67.058594 224.703125 58.8125 234.859375 58.8125 234.859375 Z M 60.730469 217.164062 L 69.167969 224.253906 L 77.414062 214.226562 L 68.914062 207.070312 Z M 114.8125 192.3125 L 124.785156 197.105469 L 130.28125 185.222656 L 120.375 180.433594 C 120.308594 180.433594 114.8125 192.3125 114.8125 192.3125 Z M 63.289062 183.945312 C 67.507812 193.910156 73.898438 202.597656 81.1875 208.988281 C 81.953125 203.75 82.785156 200.042969 83.550781 197.425781 C 76.074219 191.996094 70.703125 186.117188 67.25 180.242188 Z M 82.210938 171.234375 L 92.183594 176.023438 L 97.679688 164.140625 L 87.707031 159.351562 Z M 34.136719 123.960938 C 34.136719 123.960938 27.9375 128.433594 25.441406 134.375 C 23.910156 138.015625 24.035156 141.910156 24.867188 143.828125 C 25.761719 145.746094 27.808594 147.53125 30.492188 145.359375 C 32.347656 143.828125 33.179688 141.71875 33.625 139.867188 C 33.882812 138.78125 33.945312 138.078125 33.945312 137.566406 C 33.945312 136.929688 33.753906 136.355469 33.113281 136.480469 C 31.324219 137.054688 32.410156 139.546875 31.132812 140.699219 C 30.171875 141.273438 27.617188 140.953125 27.105469 138.460938 C 26.59375 135.90625 28.511719 132.648438 30.300781 130.539062 C 32.027344 128.367188 35.097656 125.558594 35.097656 125.558594 C 35.097656 125.558594 37.269531 123.707031 36.566406 122.8125 C 36.503906 122.746094 36.4375 122.746094 36.375 122.746094 C 35.671875 122.683594 34.136719 123.960938 34.136719 123.960938 Z M 95.316406 117.382812 C 94.546875 118.210938 91.03125 122.109375 87.644531 125.878906 C 84.574219 129.261719 81.699219 132.457031 81.058594 133.160156 C 79.589844 134.820312 78.820312 136.417969 79.015625 137.25 L 79.910156 141.65625 C 80.164062 140.824219 81.058594 139.355469 82.082031 138.207031 C 82.785156 137.375 86.367188 133.414062 89.753906 129.710938 C 92.757812 126.324219 95.699219 123.128906 96.339844 122.363281 C 97.808594 120.765625 98.574219 119.167969 98.382812 118.273438 L 97.488281 113.867188 C 97.234375 114.761719 96.339844 116.230469 95.316406 117.382812 Z M 12.402344 181.390625 C 13.617188 177.492188 15.789062 173.980469 19.625 171.808594 C 25.890625 168.804688 28.382812 176.472656 28.382812 176.472656 C 27.9375 181.644531 24.101562 184.328125 19.753906 184.328125 C 17.261719 184.328125 14.574219 183.371094 12.402344 181.390625 Z M 59.132812 57.714844 C 54.847656 57.84375 51.523438 61.484375 51.652344 65.765625 C 51.78125 70.109375 55.359375 73.558594 59.578125 73.429688 C 61.945312 73.367188 63.925781 72.214844 65.332031 70.554688 L 65.523438 70.363281 C 66.421875 76.625 63.480469 81.605469 56.640625 87.421875 C 49.605469 93.425781 33.179688 101.28125 21.480469 110.671875 C 5.050781 123.898438 1.152344 138.269531 0.128906 149.898438 C -0.320312 155.070312 0.449219 161.90625 1.855469 167.527344 C 3.578125 174.617188 6.136719 180.050781 6.136719 180.050781 C 6.136719 180.050781 6.265625 180.304688 6.457031 180.6875 C 6.007812 188.417969 6.777344 201.832031 11.058594 211.988281 C 16.8125 225.085938 27.105469 235.816406 41.9375 232.6875 C 56.894531 229.109375 58.558594 204.453125 60.28125 186.4375 C 60.730469 183.5 61.179688 182.988281 62.074219 182.222656 C 64.503906 180.175781 70.320312 174.617188 73.070312 172.128906 C 74.792969 170.59375 76.265625 169.0625 77.222656 167.082031 C 78.4375 164.71875 77.800781 161.523438 77.800781 161.523438 L 76.136719 149.640625 C 75.753906 151.300781 73.707031 153.664062 70.832031 156.605469 C 67.828125 159.671875 59.898438 166.570312 59.195312 167.335938 C 58.492188 168.101562 55.871094 169.957031 54.785156 179.027344 C 51.910156 203.683594 47.113281 215.3125 38.546875 219.207031 C 36.308594 220.292969 33.753906 220.804688 30.941406 220.871094 C 15.214844 220.742188 11.058594 201.257812 11.125 190.589844 C 11.125 189.949219 11.125 189.3125 11.1875 188.738281 C 14.832031 193.71875 20.265625 198.703125 26.914062 197.679688 C 37.523438 196.019531 34.199219 177.878906 32.667969 173.660156 C 31.195312 169.445312 27.042969 156.730469 18.15625 157.371094 C 11.828125 157.816406 8.886719 165.292969 7.542969 171.679688 C 6.328125 166.632812 5.691406 160.757812 6.074219 156.15625 C 7.03125 145.167969 10.738281 131.433594 26.53125 117.890625 C 37.78125 108.246094 50.503906 101.410156 57.597656 95.726562 C 62.136719 92.148438 64.886719 88.121094 66.484375 84.289062 C 66.035156 87.929688 65.140625 91.957031 63.414062 96.554688 C 56.894531 113.996094 37.015625 142.871094 36.757812 183.625 C 36.757812 196.148438 37.910156 207.007812 39.890625 216.269531 C 40.976562 215.503906 42 214.546875 42.957031 213.394531 C 41.550781 206.75 40.785156 199.40625 40.785156 191.613281 C 40.785156 150.984375 60.476562 122.171875 66.929688 104.730469 C 70.320312 95.535156 70.382812 88.890625 70.382812 82.246094 C 70.382812 74.132812 68.59375 65.699219 66.929688 62.378906 C 65.140625 59.183594 62.902344 57.84375 59.578125 57.84375 Z M 78.503906 1.945312 C 74.539062 4.757812 71.214844 11.144531 71.277344 20.917969 C 71.34375 26.925781 72.941406 34.078125 77.542969 42.128906 C 71.40625 50.558594 70.320312 58.355469 72.875 65.828125 C 74.859375 71.515625 75.882812 72.984375 76.777344 76.367188 C 79.015625 84.992188 76.519531 95.339844 69.808594 111.3125 C 64.375 124.34375 57.277344 137.949219 57.277344 154.496094 C 57.34375 158.328125 57.597656 161.96875 58.171875 165.613281 C 58.8125 164.972656 60.15625 163.695312 61.816406 162.164062 C 60.984375 149.195312 66.101562 136.164062 72.367188 124.40625 C 81.507812 107.289062 82.59375 89.847656 80.867188 80.328125 C 87.261719 87.292969 98.0625 97.640625 104.328125 108.246094 C 106.4375 111.824219 107.71875 115.207031 108.035156 118.660156 C 108.355469 127.027344 105.734375 133.097656 100.621094 138.972656 C 96.339844 143.957031 97.808594 148.363281 98 149.195312 C 98.320312 150.597656 100.109375 156.03125 101.324219 159.605469 C 106.117188 150.152344 119.289062 144.785156 125.234375 136.929688 C 126.574219 146.640625 119.414062 155.835938 114.046875 162.035156 C 112.765625 163.441406 111.359375 164.84375 109.828125 166.378906 C 99.726562 176.152344 93.078125 182.921875 89.5625 189.121094 C 88.667969 190.527344 87.195312 193.59375 86.492188 196.019531 C 85.46875 199.023438 84.128906 204.070312 83.042969 213.011719 C 82.210938 218.3125 81.25 224.574219 80.929688 227.386719 C 80.226562 233.773438 78.375 243.929688 70.574219 246.804688 C 70.128906 246.996094 69.746094 247.0625 69.296875 247.1875 L 69.296875 247.253906 C 61.882812 248.914062 54.339844 242.589844 48.839844 231.347656 C 47.691406 232.242188 46.476562 233.007812 45.132812 233.582031 C 52.613281 251.40625 63.800781 259.582031 73.578125 259.582031 C 80.996094 259.582031 86.875 255.8125 88.792969 244.699219 C 89.753906 239.140625 90.457031 232.941406 91.097656 226.9375 C 91.414062 224.0625 92.820312 207.710938 95.378906 201.832031 C 98.574219 195.1875 105.605469 188.738281 116.027344 177.878906 C 122.484375 171.105469 126 165.484375 127.855469 160.949219 C 133.925781 149.640625 126.382812 122.8125 124.914062 118.019531 C 124.847656 117.828125 124.847656 117.828125 124.785156 117.828125 C 124.65625 117.828125 124.59375 117.890625 124.464844 118.082031 C 124.464844 118.148438 124.402344 118.148438 124.402344 118.210938 C 121.71875 122.683594 116.921875 126.707031 112.449219 130.03125 C 114.941406 123.066406 114.300781 117.699219 113.277344 113.292969 L 113.277344 113.230469 C 113.214844 112.972656 113.152344 112.71875 113.085938 112.460938 C 108.546875 94.640625 90.585938 78.796875 82.464844 69.660156 C 71.917969 57.84375 75.496094 50.175781 79.398438 45.320312 C 80.101562 46.40625 80.867188 47.558594 81.761719 48.707031 C 96.082031 68.382812 123.058594 99.621094 137.25 129.328125 C 140.832031 136.863281 143.578125 144.210938 145.113281 151.238281 C 150.675781 182.03125 129.453125 213.394531 97.617188 204.578125 C 97.425781 204.515625 97.167969 204.453125 96.976562 204.386719 C 96.144531 207.136719 95.316406 211.480469 94.484375 217.484375 C 99.277344 219.527344 104.519531 220.804688 109.632812 220.996094 C 110.019531 220.996094 110.402344 220.996094 110.722656 220.996094 C 136.867188 221.316406 157.324219 201.449219 153.550781 159.863281 C 153.550781 159.863281 151.953125 142.550781 143.132812 124.34375 C 129.003906 92.339844 102.792969 60.589844 86.75 40.148438 C 81.632812 33.632812 78.628906 28.011719 77.160156 23.15625 C 74.15625 13.699219 76.074219 6.355469 79.910156 3.160156 C 80.738281 2.457031 81.761719 1.625 82.722656 1.179688 C 83.296875 0.859375 83.105469 0.15625 82.65625 0.09375 C 82.59375 0.09375 82.464844 0.09375 82.273438 0.09375 C 81.828125 0.09375 80.675781 0.347656 78.503906 1.945312 Z M 49.097656 71.195312 C 44.8125 71.320312 41.488281 74.964844 41.617188 79.308594 C 41.746094 83.652344 45.261719 87.035156 49.542969 86.910156 C 53.828125 86.78125 57.152344 83.140625 57.023438 78.796875 C 56.894531 74.515625 53.441406 71.195312 49.289062 71.195312 Z M 49.097656 71.195312 "/>
<path style=" stroke:none;fill-rule:nonzero;fill:rgb(12.941176%,18.039216%,39.215686%);fill-opacity:1;" d="M 23.460938 286.988281 C 23.972656 289.671875 24.292969 292.289062 24.546875 294.84375 C 24.804688 297.398438 24.929688 299.828125 24.996094 302.0625 L 30.046875 302.0625 L 30.046875 307.046875 L 24.996094 307.046875 C 24.996094 307.558594 24.867188 308.195312 24.738281 308.898438 C 24.613281 309.664062 24.355469 310.367188 23.972656 311.136719 C 23.589844 311.902344 23.140625 312.667969 22.566406 313.433594 C 21.992188 314.199219 21.222656 314.902344 20.265625 315.480469 C 19.304688 316.117188 18.21875 316.566406 16.875 316.949219 C 15.535156 317.332031 13.9375 317.523438 12.144531 317.523438 L 11.058594 314.199219 C 12.59375 314.074219 14 313.691406 15.214844 313.113281 C 15.726562 312.859375 16.238281 312.476562 16.75 312.09375 C 17.261719 311.710938 17.707031 311.199219 18.089844 310.625 C 18.476562 310.046875 18.792969 309.410156 19.050781 308.578125 C 19.304688 307.8125 19.433594 306.917969 19.433594 305.898438 C 19.433594 303.085938 19.371094 300.273438 19.242188 297.335938 C 19.113281 294.398438 18.667969 291.523438 17.898438 288.648438 L 23.460938 286.988281 "/>
<path style=" stroke:none;fill-rule:nonzero;fill:rgb(12.941176%,18.039216%,39.215686%);fill-opacity:1;" d="M 28.894531 302.0625 L 45.578125 302.0625 L 45.578125 307.046875 L 28.894531 307.046875 Z M 28.894531 302.0625 "/>
<path style=" stroke:none;fill-rule:nonzero;fill:rgb(12.941176%,18.039216%,39.215686%);fill-opacity:1;" d="M 44.429688 302.0625 L 51.972656 302.0625 L 51.972656 288.710938 L 57.46875 286.796875 L 57.46875 302.0625 L 63.542969 302.0625 L 63.542969 288.710938 L 69.042969 286.796875 L 69.042969 302.0625 L 75.050781 302.0625 L 75.050781 288.710938 L 80.546875 286.796875 L 80.546875 307.046875 L 44.367188 307.046875 Z M 58.046875 280.984375 C 58.046875 280.023438 58.367188 279.195312 59.070312 278.492188 C 59.773438 277.789062 60.601562 277.46875 61.5625 277.46875 C 62.519531 277.46875 63.289062 277.789062 63.992188 278.492188 C 64.628906 279.195312 64.949219 280.023438 64.949219 280.984375 C 64.949219 281.941406 64.628906 282.707031 63.992188 283.410156 C 63.351562 284.050781 62.519531 284.367188 61.5625 284.367188 C 60.601562 284.367188 59.773438 284.050781 59.070312 283.410156 C 58.367188 282.769531 58.046875 281.941406 58.046875 280.984375 Z M 62.394531 272.292969 C 62.394531 271.335938 62.710938 270.507812 63.414062 269.804688 C 64.117188 269.101562 64.949219 268.78125 65.910156 268.78125 C 66.867188 268.78125 67.632812 269.101562 68.339844 269.804688 C 68.976562 270.507812 69.296875 271.335938 69.296875 272.292969 C 69.296875 273.253906 68.976562 274.082031 68.339844 274.722656 C 67.699219 275.425781 66.867188 275.746094 65.910156 275.746094 C 64.949219 275.746094 64.117188 275.425781 63.414062 274.722656 C 62.777344 274.019531 62.394531 273.253906 62.394531 272.292969 Z M 67.125 280.984375 C 67.125 280.023438 67.441406 279.195312 68.144531 278.492188 C 68.847656 277.789062 69.679688 277.46875 70.640625 277.46875 C 71.597656 277.46875 72.367188 277.789062 73.070312 278.492188 C 73.707031 279.195312 74.027344 280.023438 74.027344 280.984375 C 74.027344 281.941406 73.707031 282.707031 73.070312 283.410156 C 72.429688 284.050781 71.597656 284.367188 70.640625 284.367188 C 69.679688 284.367188 68.847656 284.050781 68.144531 283.410156 C 67.507812 282.769531 67.125 281.941406 67.125 280.984375 Z M 67.125 280.984375 "/>
<path style=" stroke:none;fill-rule:nonzero;fill:rgb(12.941176%,18.039216%,39.215686%);fill-opacity:1;" d="M 86.621094 277.597656 L 92.4375 275.9375 L 92.4375 302.0625 L 97.617188 302.0625 L 97.617188 307.046875 L 86.621094 307.046875 L 86.621094 277.597656 "/>
<path style=" stroke:none;fill-rule:nonzero;fill:rgb(12.941176%,18.039216%,39.215686%);fill-opacity:1;" d="M 96.210938 302.0625 L 104.839844 302.0625 L 104.839844 288.585938 L 110.65625 286.921875 L 110.65625 302.0625 L 118.074219 302.0625 L 118.074219 307.046875 L 96.144531 307.046875 Z M 104.199219 314.519531 C 104.199219 313.5625 104.519531 312.730469 105.222656 312.027344 C 105.925781 311.328125 106.757812 311.007812 107.71875 311.007812 C 108.675781 311.007812 109.441406 311.328125 110.144531 312.027344 C 110.785156 312.730469 111.105469 313.5625 111.105469 314.519531 C 111.105469 315.480469 110.785156 316.246094 110.144531 316.949219 C 109.507812 317.585938 108.675781 317.90625 107.71875 317.90625 C 106.757812 317.90625 105.925781 317.585938 105.222656 316.949219 C 104.585938 316.246094 104.199219 315.480469 104.199219 314.519531 Z M 104.199219 314.519531 "/>
<path style=" stroke:none;fill-rule:nonzero;fill:rgb(12.941176%,18.039216%,39.215686%);fill-opacity:1;" d="M 139.425781 303.085938 C 139.359375 303.851562 139.042969 304.875 138.339844 306.089844 C 137.125 308.578125 135.972656 309.855469 134.820312 309.855469 C 134.4375 309.855469 133.992188 309.730469 133.542969 309.539062 C 132.648438 309.15625 131.371094 308.578125 129.773438 307.8125 C 128.171875 307.046875 126.253906 306.089844 124.019531 304.9375 C 123.507812 305.832031 122.867188 306.472656 122.226562 306.726562 C 121.71875 306.917969 120.820312 306.984375 119.671875 306.984375 L 116.667969 306.984375 L 116.667969 302 L 120.054688 302 C 120.949219 299.890625 121.972656 297.976562 122.929688 296.25 C 123.953125 294.527344 124.976562 293.054688 125.9375 291.84375 C 126.957031 290.628906 127.917969 289.671875 128.8125 289.03125 C 129.773438 288.328125 130.601562 288.007812 131.433594 288.007812 C 133.480469 288.007812 135.140625 289.480469 136.484375 292.355469 C 136.867188 293.183594 137.25 294.269531 137.699219 295.613281 C 138.082031 296.890625 138.53125 298.484375 138.976562 300.339844 C 139.359375 301.550781 139.488281 302.511719 139.425781 303.085938 Z M 134.246094 303.851562 C 133.863281 301.105469 133.414062 298.871094 132.777344 297.144531 C 132.199219 295.417969 131.433594 294.589844 130.539062 294.589844 C 130.21875 294.589844 129.707031 294.972656 128.941406 295.675781 C 128.492188 296.121094 127.980469 296.761719 127.46875 297.59375 C 126.957031 298.421875 126.511719 299.125 126.191406 299.765625 C 127.46875 300.722656 128.8125 301.550781 130.21875 302.253906 C 131.625 302.957031 132.96875 303.46875 134.246094 303.851562 Z M 134.246094 303.851562 "/>
</g>
</svg>
