<?xml version="1.0" encoding="utf-8"?>
<svg width="340px" height="192.973px" viewBox="-3.551 0 28.447 16.121" version="1.1" id="svg1" xmlns="http://www.w3.org/2000/svg">
  <defs id="defs1">
    <radialGradient id="radial-gradient" cx="52.934155" cy="-1.1931803" r="113.41179" gradientUnits="userSpaceOnUse" gradientTransform="scale(1.3238237,0.75538762)">
      <stop offset="0.126" stop-color="#fdf8d4" id="stop1"/>
      <stop offset="0.131" stop-color="#fcedb6" id="stop2"/>
      <stop offset="0.138" stop-color="#fce092" id="stop3"/>
      <stop offset="0.145" stop-color="#fbd472" id="stop4"/>
      <stop offset="0.153" stop-color="#facb56" id="stop5"/>
      <stop offset="0.163" stop-color="#fac340" id="stop6"/>
      <stop offset="0.174" stop-color="#f9bc2f" id="stop7"/>
      <stop offset="0.187" stop-color="#f9b824" id="stop8"/>
      <stop offset="0.206" stop-color="#f9b61d" id="stop9"/>
      <stop offset="0.259" stop-color="#f9b51b" id="stop10"/>
      <stop offset="0.317" stop-color="#f59a19" id="stop11"/>
      <stop offset="0.41" stop-color="#ef7417" id="stop12"/>
      <stop offset="0.503" stop-color="#ea5715" id="stop13"/>
      <stop offset="0.595" stop-color="#e74213" id="stop14"/>
      <stop offset="0.685" stop-color="#e53512" id="stop15"/>
      <stop offset="0.771" stop-color="#e43112" id="stop16"/>
    </radialGradient>
    <radialGradient id="radial-gradient-2" cx="34.299095" cy="18.043951" r="32.771912" gradientUnits="userSpaceOnUse" gradientTransform="scale(1.6455358,0.60770481)">
      <stop offset="0.179" stop-color="#fdf8d4" id="stop17"/>
      <stop offset="0.19" stop-color="#fcedb6" id="stop18"/>
      <stop offset="0.206" stop-color="#fce092" id="stop19"/>
      <stop offset="0.225" stop-color="#fbd472" id="stop20"/>
      <stop offset="0.245" stop-color="#facb56" id="stop21"/>
      <stop offset="0.268" stop-color="#fac340" id="stop22"/>
      <stop offset="0.295" stop-color="#f9bc2f" id="stop23"/>
      <stop offset="0.328" stop-color="#f9b824" id="stop24"/>
      <stop offset="0.374" stop-color="#f9b61d" id="stop25"/>
      <stop offset="0.502" stop-color="#f9b51b" id="stop26"/>
      <stop offset="0.839" stop-color="#f7a918" id="stop27"/>
    </radialGradient>
  </defs>
  <g id="layer1">
    <g transform="matrix(0.26458333,0,0,0.26458333,2.9689685,1.0322506)" clip-path="url(#clipPath27)">
      <g>
        <path d="m 36.131,32.236 a 18.921,18.921 0 0 0 2.171,-0.291 c 0.09,-0.022 0.291,-0.067 0.381,-0.09 -1.3,7.052 -5.664,9.044 -8.395,9.536 -4.3,0.9 -8.663,-0.313 -12.312,-2.239 a 24.3,24.3 0 0 1 -7.589,-6.2 16.122,16.122 0 0 0 5.328,-0.537 16.237,16.237 0 0 0 7.119,4.32 10.919,10.919 0 0 0 8.73,-0.694 7.865,7.865 0 0 0 2.149,-1.9 l 0.425,1.186 -2.015,0.739 1.186,2.642 2.44,-0.918 -0.582,-1.41 2.171,-0.6 -1.1,-2.642 -2.418,0.9 a 8.519,8.519 0 0 0 1.03,-1.813 c 0.246,0.022 0.515,0.022 0.806,0.022 a 1.635,1.635 0 0 0 0.47,0 m 9.648,-0.134 a 1.8,1.8 0 0 1 -1.119,-1.836 c 1.7,-0.067 2.686,0.56 2.933,1.858 a 2.542,2.542 0 0 1 -0.94,0.2 1.693,1.693 0 0 1 -0.873,-0.224 m -11.659,-5.27 v 0 l 0.112,0.045 z m -11.439,7.051 a 13.718,13.718 0 0 1 -3.47,-2.574 9.822,9.822 0 0 0 1.3,-0.582 c 2.373,-1.231 3.447,-6.067 3.447,-6.067 1.209,-0.179 1.545,-1.366 2.776,-2.015 1.768,-0.94 0.6,0.918 0.6,0.918 0,0 -0.47,0.694 -0.918,1.366 l -0.515,-0.4 -1.589,2.283 0.47,0.381 c -0.716,1.992 -1.1,3.627 -0.806,4.858 0.022,0.067 0.022,0.134 0.045,0.2 a 3.183,3.183 0 0 0 1.01,1.74 2.178,2.178 0 0 0 1.768,0.381 3.9,3.9 0 0 0 0.492,-0.112 8.63,8.63 0 0 0 4.343,-3.4 3.959,3.959 0 0 0 2.6,1.3 7.014,7.014 0 0 1 -4.388,3.022 9.2,9.2 0 0 1 -1.724,0.179 12.127,12.127 0 0 1 -5.44,-1.477 m 17.393,-17.26 c 0.336,0.022 0.784,0.09 1.119,0.112 a 103.087,103.087 0 0 0 0.716,11.171 c -0.537,0.269 -1.142,0.582 -1.522,0.761 0.045,-0.448 -0.157,-9.939 -0.313,-12.044 m -23.819,6.94 a 8.981,8.981 0 0 1 3.022,-4.791 11.441,11.441 0 0 1 4.947,-2.574 c 3.671,-0.873 7.656,-0.381 11.282,-0.022 1.052,0.112 2.082,0.224 3.112,0.336 0.045,0.761 0.09,1.5 0.112,2.216 a 68.688,68.688 0 0 1 0.157,10.611 7.968,7.968 0 0 1 -2.776,0.336 5.739,5.739 0 0 1 -3.246,-0.6 21.5,21.5 0 0 0 1.343,-2.149 l 0.045,-0.045 c 0.045,-0.067 0.112,-0.2 0.179,-0.313 a 1.33,1.33 0 0 1 0.09,-0.179 0.2,0.2 0 0 0 0.022,-0.112 0.465,0.465 0 0 0 0,-0.179 l -0.134,-0.537 a 28.635,28.635 0 0 0 -2.6,-6.559 17.293,17.293 0 0 0 -1.589,-2.462 l -0.313,-0.425 -0.2,0.492 a 3.591,3.591 0 0 0 -0.224,1.992 v 0.067 l 0.045,0.045 a 23.436,23.436 0 0 1 2.306,4.455 23.43,23.43 0 0 1 1.209,3.022 1.288,1.288 0 0 1 0.045,0.224 v 0.022 c -0.4,0.649 -0.806,1.231 -1.186,1.768 a 3.273,3.273 0 0 1 -0.582,-1.858 5.441,5.441 0 0 1 0.045,-1.03 9.956,9.956 0 0 0 -0.515,3.246 5.2,5.2 0 0 0 0.112,0.851 c -0.336,0.381 -0.649,0.716 -0.985,1.03 A 7.268,7.268 0 0 1 26.93,32.3 c -0.045,0.022 -0.112,0.022 -0.157,0.045 a 1.676,1.676 0 0 1 -1.276,-0.09 1.452,1.452 0 0 1 -0.649,-1.007 0.97,0.97 0 0 1 -0.022,-0.112 7.183,7.183 0 0 1 0.112,-3.873 l 1.343,1.052 0.761,-1.007 1.679,1.321 1.657,-2.216 -2.015,-1.613 -0.739,1.052 -1.03,-0.828 c 0.246,-0.336 0.56,-0.739 0.918,-1.231 4.164,-5.641 0.224,-3.47 -0.649,-2.933 -0.784,0.47 -3.582,2.283 -3.806,0.224 -0.224,-2.059 -1.567,2.418 -1.567,2.418 a 5.572,5.572 0 0 1 0.918,3.761 32.979,32.979 0 0 1 -4.723,2.149 9.666,9.666 0 0 1 -1.477,-3.492 l 1.9,1.5 1.657,-2.216 -2.015,-1.612 -1.545,2.216 A 5.047,5.047 0 0 1 16.25,23.569 M 39.78,13.387 C 39.735,12.85 39.69,12.335 39.69,11.842 A 12.4,12.4 0 0 1 39.936,8.8 h 0.045 c 0.157,0.022 0.291,0.022 0.448,0.045 v 0.022 a 3.238,3.238 0 0 1 0.627,1.209 c 0.022,1.254 0.045,2.462 0.067,3.582 -0.47,-0.112 -0.9,-0.179 -1.343,-0.269 M 6.917,21.446 A 15.508,15.508 0 0 1 12.111,13.23 19.3,19.3 0 0 1 20.618,8.82 C 26.707,7.387 33.288,8.104 39.333,8.708 a 12.613,12.613 0 0 0 -0.739,3.582 c -0.022,0.291 -0.022,0.56 -0.045,0.851 a 77.762,77.762 0 0 0 -8.328,-1.321 22.26,22.26 0 0 0 -7.656,0.537 14.546,14.546 0 0 0 -6.671,3.9 12.25,12.25 0 0 0 -3.537,6.6 10.614,10.614 0 0 0 1.366,6.984 5.208,5.208 0 0 0 0.381,0.582 A 6.668,6.668 0 0 1 9.179,29.707 6.347,6.347 0 0 1 7.5,28 11.492,11.492 0 0 1 6.761,22.448 Z M 67.941,5.238 A 39.5,39.5 0 0 1 55.786,5.35 C 47.615,4.343 39.486,1.992 30.893,1.25 a 37.991,37.991 0 0 0 -13.14,0.9 24.831,24.831 0 0 0 -11.44,6.692 21.007,21.007 0 0 0 -6.089,11.35 18.2,18.2 0 0 0 2.351,12 27.034,27.034 0 0 0 15.625,11.886 c 5.619,1.7 11.282,1.142 15.021,-1.186 a 13.825,13.825 0 0 0 5.932,-7.566 40.722,40.722 0 0 0 1.047,-4.075 8.674,8.674 0 0 1 2.194,-0.9 c 0.739,2.686 1.925,4.209 3.515,4.589 0.627,0.157 1.254,-0.157 1.858,-0.94 a 5.211,5.211 0 0 0 1.007,-3.156 2.949,2.949 0 0 0 -2.127,-3.134 c -0.828,-0.157 -1.657,-0.269 -2.485,-0.358 -0.537,-0.806 -0.963,-3.47 -1.3,-7.992 -0.067,-0.918 -0.134,-1.768 -0.179,-2.53 1.007,0.045 1.992,0.045 2.933,0 a 19.571,19.571 0 0 0 7.634,-1.657 12.77,12.77 0 0 0 3.918,-2.821 10.194,10.194 0 0 0 1.052,-1.276 13.741,13.741 0 0 1 -6.447,3.044 22.708,22.708 0 0 1 -7.074,0.067 c -0.716,-0.09 -1.433,-0.2 -2.149,-0.313 a 13.852,13.852 0 0 1 0.067,-2.194 c 0.918,-0.918 1.276,-1.567 1.142,-1.948 A 1.782,1.782 0 0 0 43.535,9.15 97.01,97.01 0 0 0 57.347,9.866 33.185,33.185 0 0 0 70.447,7.023 21.809,21.809 0 0 0 77.185,2.165 21.223,21.223 0 0 0 79,0 23.855,23.855 0 0 1 67.941,5.238" fill="url(#radial-gradient)" style="fill:url(#radial-gradient)"/>
        <path d="m 42.69,16.812 c 1.007,0.045 1.992,0.045 2.933,0 a 19.571,19.571 0 0 0 7.634,-1.657 12.77,12.77 0 0 0 3.918,-2.821 10.194,10.194 0 0 0 1.052,-1.276 13.741,13.741 0 0 1 -6.449,3.042 22.708,22.708 0 0 1 -7.074,0.067 c -0.716,-0.09 -1.433,-0.2 -2.149,-0.313" fill="url(#radial-gradient-2)" style="fill:url(#radial-gradient-2)"/>
      </g>
      <g>
        <g>
          <path d="m 15.178,53.345 v -5.618 h 1.634 l 0.985,3.828 0.985,-3.828 h 1.634 v 5.619 h -1.03 v -4.41 l -1.075,4.41 h -1.052 l -1.075,-4.41 v 4.41 z" fill="#202d56"/>
          <path d="M 26.706,53.368 H 25.52 l -0.47,-1.276 h -2.172 l -0.448,1.276 h -1.163 l 2.127,-5.619 h 1.164 z m -2.015,-2.239 -0.739,-2.082 -0.739,2.082 z" fill="#202d56"/>
          <path d="M 28.318,53.368 V 50.995 L 26.326,47.749 H 27.6 l 1.276,2.216 1.254,-2.216 h 1.254 l -1.992,3.268 v 2.351 z" fill="#202d56"/>
          <path d="M 36.467,53.368 H 35.28 l -0.47,-1.276 h -2.171 l -0.448,1.276 h -1.164 l 2.127,-5.619 h 1.164 z m -2.015,-2.216 -0.739,-2.082 -0.739,2.082 z" fill="#202d56"/>
          <path d="m 37.34,47.749 h 2.015 a 3.854,3.854 0 0 1 1.03,0.112 1.912,1.912 0 0 1 0.828,0.515 2.449,2.449 0 0 1 0.515,0.918 4.767,4.767 0 0 1 0.022,2.506 2.5,2.5 0 0 1 -0.582,0.985 1.962,1.962 0 0 1 -0.761,0.448 2.908,2.908 0 0 1 -0.963,0.112 h -2.06 z m 1.1,0.963 v 3.716 h 0.828 a 4.244,4.244 0 0 0 0.672,-0.045 0.925,0.925 0 0 0 0.739,-0.761 4.106,4.106 0 0 0 0.112,-1.03 3.911,3.911 0 0 0 -0.112,-1.007 1.266,1.266 0 0 0 -0.313,-0.537 1.038,1.038 0 0 0 -0.515,-0.269 4.271,4.271 0 0 0 -0.9,-0.045 z" fill="#202d56"/>
          <path d="m 43.137,53.368 v -5.619 h 4.029 v 0.94 h -2.932 v 1.254 h 2.731 v 0.94 h -2.731 v 1.522 h 3.044 v 0.94 z" fill="#202d56"/>
          <path d="m 48.488,53.368 v -5.619 h 4.029 v 0.94 h -2.932 v 1.254 h 2.731 v 0.94 h -2.731 v 1.522 h 3.044 v 0.94 z" fill="#202d56"/>
          <path d="m 53.86,53.368 v -5.619 h 1.075 l 2.216,3.761 v -3.761 h 1.03 v 5.619 h -1.1 L 54.89,49.7 v 3.671 z" fill="#202d56"/>
          <path d="M 5.776,53.345 H 4.589 L 4.119,52.069 H 1.948 L 1.5,53.345 H 0.336 L 2.463,47.726 H 3.627 Z M 3.761,51.129 3.022,49.047 2.283,51.129 Z" fill="#202d56"/>
          <path d="m 6.693,53.345 v -5.574 h 1.1 v 4.634 h 2.731 v 0.94 z" fill="#202d56"/>
        </g>
      </g>
    </g>
  </g>
</svg>