<svg fill="none" height="56" viewBox="0 0 56 56" width="56" xmlns="http://www.w3.org/2000/svg"><g clip-rule="evenodd" fill-rule="evenodd"><path d="m0 0h56v56h-56z" fill="#77bc1f"/><g fill="#000"><path d="m32.3721 20.3301v1.9717h7.4705v14.6983h8.6868v-14.6983h7.4703v-1.9717z"/><path d="m20.9075 27.8582c.6635 0 1.2682-.2821 1.7138-.7623.4776-.5101.7694-1.2094.7694-1.9264h-.0039.0039c0-.717-.2918-1.5058-.7694-2.0165-.4456-.479-1.0503-.8514-1.7138-.8514h-3.5163v5.5566zm7.0218-7.5281c1.1876.046 2.298.4535 3.0839 1.2933.816.8844 1.3622 2.1124 1.3622 3.5464h.0066-.0066c0 1.2547-.5064 2.4435-1.3222 3.3198-.5093.5455-1.1267.9384-1.8244 1.1771l5.1548 7.3334h-9.4655l-4.592-6.9906h-2.9354v6.9906h-8.64558v-16.67z"/></g></g></svg>