<?xml version="1.0" encoding="UTF-8"?>
<svg id="Layer_2" data-name="Layer 2" xmlns="http://www.w3.org/2000/svg" xmlns:xlink="http://www.w3.org/1999/xlink" viewBox="0 0 265.94 42.9">
  <defs>
    <style>
      .cls-1 {
        fill: none;
      }

      .cls-1, .cls-2, .cls-3, .cls-4, .cls-5, .cls-6, .cls-7, .cls-8, .cls-9, .cls-10, .cls-11, .cls-12, .cls-13 {
        stroke-width: 0px;
      }

      .cls-2 {
        fill: url(#Plinth_HL_GRAD);
        opacity: .35;
      }

      .cls-3 {
        fill: url(#Logo_HL_GRAD);
      }

      .cls-3, .cls-14 {
        opacity: .25;
      }

      .cls-4 {
        fill: url(#Logo_HL_GRAD-5);
      }

      .cls-5 {
        fill: url(#Logo_HL_GRAD-6);
      }

      .cls-6 {
        fill: url(#Logo_HL_GRAD-4);
      }

      .cls-7 {
        fill: url(#Logo_HL_GRAD-8);
      }

      .cls-8 {
        fill: url(#Logo_HL_GRAD-2);
      }

      .cls-9 {
        fill: url(#Logo_HL_GRAD-7);
      }

      .cls-10 {
        fill: url(#Logo_HL_GRAD-3);
      }

      .cls-11 {
        fill: url(#Plinth_GRAD_RGB);
      }

      .cls-12 {
        fill: #1c1c1c;
      }

      .cls-13 {
        fill: #fff;
      }
    </style>
    <linearGradient id="Plinth_GRAD_RGB" x1="122.93" y1="0" x2="122.93" y2="42.9" gradientUnits="userSpaceOnUse">
      <stop offset=".4" stop-color="#e90e10"/>
      <stop offset="1" stop-color="#bc0000"/>
    </linearGradient>
    <linearGradient id="Plinth_HL_GRAD" x1="123.17" y1="20.13" x2="122.43" y2="-1.24" gradientUnits="userSpaceOnUse">
      <stop offset="0" stop-color="#fff"/>
      <stop offset=".12" stop-color="#fff" stop-opacity=".83"/>
      <stop offset=".27" stop-color="#fff" stop-opacity=".66"/>
      <stop offset=".42" stop-color="#fff" stop-opacity=".51"/>
      <stop offset=".57" stop-color="#fff" stop-opacity=".4"/>
      <stop offset=".72" stop-color="#fff" stop-opacity=".32"/>
      <stop offset=".86" stop-color="#fff" stop-opacity=".27"/>
      <stop offset="1" stop-color="#fff" stop-opacity=".25"/>
    </linearGradient>
    <linearGradient id="Logo_HL_GRAD" x1="31.35" y1="22.58" x2="30.84" y2="8.21" gradientUnits="userSpaceOnUse">
      <stop offset="0" stop-color="#fff"/>
      <stop offset=".12" stop-color="#fff" stop-opacity=".83"/>
      <stop offset=".27" stop-color="#fff" stop-opacity=".66"/>
      <stop offset=".42" stop-color="#fff" stop-opacity=".51"/>
      <stop offset=".57" stop-color="#fff" stop-opacity=".4"/>
      <stop offset=".72" stop-color="#fff" stop-opacity=".32"/>
      <stop offset=".86" stop-color="#fff" stop-opacity=".27"/>
      <stop offset="1" stop-color="#fff" stop-opacity=".25"/>
    </linearGradient>
    <linearGradient id="Logo_HL_GRAD-2" data-name="Logo_HL_GRAD" x1="191.39" y1="16.47" x2="191.39" y2="10.13" xlink:href="#Logo_HL_GRAD"/>
    <linearGradient id="Logo_HL_GRAD-3" data-name="Logo_HL_GRAD" x1="228.37" y1="17.21" x2="228.37" y2="10.02" xlink:href="#Logo_HL_GRAD"/>
    <linearGradient id="Logo_HL_GRAD-4" data-name="Logo_HL_GRAD" x1="215.29" y1="17.35" x2="215.29" y2="9.99" xlink:href="#Logo_HL_GRAD"/>
    <linearGradient id="Logo_HL_GRAD-5" data-name="Logo_HL_GRAD" x1="194.52" y1="17.67" x2="194.52" y2="9.94" xlink:href="#Logo_HL_GRAD"/>
    <linearGradient id="Logo_HL_GRAD-6" data-name="Logo_HL_GRAD" x1="241.44" y1="17.69" x2="241.44" y2="9.95" xlink:href="#Logo_HL_GRAD"/>
    <linearGradient id="Logo_HL_GRAD-7" data-name="Logo_HL_GRAD" x1="257.55" y1="17.52" x2="257.55" y2="9.98" xlink:href="#Logo_HL_GRAD"/>
    <linearGradient id="Logo_HL_GRAD-8" data-name="Logo_HL_GRAD" x1="198.87" y1="16.47" x2="198.87" y2="10.13" xlink:href="#Logo_HL_GRAD"/>
  </defs>
  <g id="Layer_1-2" data-name="Layer 1">
    <g>
      <g>
        <path class="cls-12" d="M190.19,7.98h2.39c1.26,0,1.53-.27,1.53-1.56v-2.43c0-1.29-.27-1.55-1.53-1.55h-2.39c-1.27,0-1.52.26-1.52,1.55v2.43c0,1.29.26,1.56,1.52,1.56"/>
        <path class="cls-12" d="M205.89,34.89h-2.38c-1.27,0-1.52.27-1.52,1.55v2.43c0,1.29.26,1.56,1.52,1.56h2.38c1.27,0,1.53-.27,1.53-1.56v-2.43c0-1.28-.26-1.55-1.53-1.55"/>
        <path class="cls-12" d="M213.37,34.89h-2.38c-1.27,0-1.52.27-1.52,1.55v2.43c0,1.29.26,1.56,1.52,1.56h2.38c1.26,0,1.53-.27,1.53-1.56v-2.43c0-1.28-.27-1.55-1.53-1.55"/>
        <path class="cls-12" d="M223.93,34.89h-2.39c-1.26,0-1.52.27-1.52,1.55v2.43c0,1.29.26,1.56,1.52,1.56h2.39c1.27,0,1.52-.27,1.52-1.56v-2.43c0-1.28-.26-1.55-1.52-1.55"/>
        <path class="cls-12" d="M206.57,25.39c-1.08,0-1.43-.2-1.51-1.04v-8.96c0-4.56-4.29-4.37-4.29-4.37h-7.82s-8.39-.58-9.15,9.13c-.85,10.85,10.1,11.01,10.1,11.01h21.75c2.49,0,2.48-1.61,2.48-1.76,0,1.96,2.1,1.76,2.1,1.76h6.8c3.82,0,4.19-3.63,4.19-3.63V11.02c-5.81,0-5.71,4.37-5.71,4.37v10.01h-5.85c-1.18,0-1.48-.24-1.53-1.3v-13.08c-4.93,0-5.62,2.94-5.7,4v10.38h-5.87ZM198.85,29.2c0-1.3-.2-1.67-.52-2.35-1.17-2.42-4.01-1.47-5.57-1.66-.88-.11-3.12-.95-3.24-3.89-.19-4.47,4-4.66,4-4.66h5.34l-.02,12.55Z"/>
        <path class="cls-12" d="M238.59,31.01c-.52,3.6-3.67,3.65-3.67,3.65-6.17.15-4.97,5.63-4.97,5.63,3.43.39,8.23,0,11.1-2.13,2.87-2.14,3.25-7.01,3.25-7.01h17.21s4.34,0,4.34,0c0-6.12-4.3-5.83-4.3-5.83h-3.12c-3.96,0-3.81-4.46-3.81-4.46,0-5.88,6.11-3.11,8.97-4.27,2.87-1.17,2.29-5.64,2.29-5.64h-9.36c-5.16,0-8.67,4.72-8.22,9.91.29,3.35,1.14,4.47,1.14,4.47h-4.43c-.58-.14-.73-.53-.73-1.48v-12.9c-5.97,0-5.71,4.38-5.71,4.38v15.68Z"/>
        <path class="cls-12" d="M197.67,7.98h2.39c1.26,0,1.52-.27,1.52-1.56v-2.43c0-1.29-.26-1.55-1.52-1.55h-2.39c-1.26,0-1.52.26-1.52,1.55v2.43c0,1.29.26,1.56,1.52,1.56"/>
      </g>
      <g>
        <rect id="Plinth" class="cls-11" x="68.52" width="108.82" height="42.9" rx="2.86" ry="2.86"/>
        <path id="p35" class="cls-2" d="M70.58,21.28s.09,0,.27-.01c8.46-.3,104.36-3.65,104.36-3.65,1.08-.04,2.14-.84,2.14-2.17V2.86c0-1.58-1.28-2.86-2.86-2.86h-103.1c-1.58,0-2.86,1.28-2.86,2.86v20.65c0-.23.07-2.03,2.06-2.22Z"/>
        <path id="Sky_Logo" class="cls-12" d="M42.86,39.81c.51.26,1.55.58,2.85.61,2.24.05,3.46-.81,4.37-2.81l12.02-26.76c-.49-.26-1.6-.56-2.49-.58-1.55-.03-3.63.28-4.95,3.44l-3.89,9.16-7.63-12.41c-.49-.15-1.7-.36-2.57-.36-2.7,0-4.2.99-5.77,2.68l-7.42,8.1,5.97,9.38c1.1,1.71,2.56,2.58,4.91,2.58,1.55,0,2.83-.36,3.43-.64l-7.19-10.81,5.09-5.4,8.36,13.1-5.09,10.71ZM27.09,29.69c0,1.97-.78,3.11-4.63,3.11-.51,0-.96-.03-1.38-.1V6.54c0-1.99.68-4.07,4.57-4.07.49,0,.99.05,1.45.15v27.07ZM19.14,25.74c0,3.69-2.41,6.37-7.3,6.9-3.54.38-8.67-.07-11.11-.35-.08-.39-.15-.89-.15-1.28,0-3.21,1.73-3.95,3.36-3.95s4.37.3,6.35.3c2.19,0,2.85-.74,2.85-1.45,0-.92-.87-1.3-2.57-1.63l-4.65-.89c-3.86-.74-5.92-3.41-5.92-6.24,0-3.44,2.44-6.32,7.24-6.85,3.63-.4,8.04.05,10.47.35.08.41.13.81.13,1.23,0,3.21-1.7,3.9-3.33,3.9-1.25,0-3.2-.23-5.42-.23s-3.2.63-3.2,1.38c0,.81.89,1.14,2.31,1.38l4.43.82c4.55.84,6.51,3.42,6.51,6.6Z"/>
        <path id="s25" class="cls-3" d="M62.1,10.85l-4.4,9.79c-.13.26-.62,1.1-1.83,1.15-.29,0-4.02.14-4.02.14-.73.03-.97.72-.98.73h0s3.8-8.95,3.8-8.95c1.32-3.16,3.4-3.47,4.95-3.44.89.02,1.99.31,2.49.58ZM50.57,22.56l-7.43-12.08c-.49-.15-1.7-.36-2.57-.36-2.7,0-4.2.99-5.77,2.68l-7.42,8.1.59.93c.25.35.76.92,1.75.89.35-.01,3.94-.14,4.23-.15.93-.03,1.51.37,1.87.84h0s-1.33-2-1.33-2l5.09-5.4,3.42,5.36h0c.62.81,1.55.82,1.75.82.18,0,4.66-.16,4.86-.17.31-.01.67.16.94.55ZM25.64,2.48c-3.89,0-4.57,2.07-4.57,4.07v17.93c0-.72.56-1.48,1.48-1.52.65-.02,2.47-.09,3.01-.11.59-.02,1.51-.42,1.52-1.53V2.62c-.46-.1-.96-.15-1.45-.15ZM12.63,19.15l-4.43-.82c-1.42-.25-2.31-.58-2.31-1.38,0-.76.94-1.38,3.2-1.38s4.17.23,5.42.23c1.63,0,3.33-.69,3.33-3.9,0-.43-.05-.82-.13-1.23-2.42-.3-6.84-.74-10.47-.35-4.8.53-7.24,3.41-7.24,6.85,0,1.77.8,3.47,2.34,4.68,1.17.77,2.36,1.07,3.56,1.27.98.17,3.27.32,4.96.26.53-.02,4.44-.16,5.29-.18,1.98-.07,3.06,1.63,2.95,3.32,0-.02,0-.04,0-.07,0,0,0-.01,0-.02.02-.22.03-.44.03-.67,0-3.18-1.96-5.76-6.51-6.6Z"/>
        <g>
          <path class="cls-13" d="M95.44,19.79v10.91c0,.8-.46,1.31-1.85,1.31-.59,0-1.26-.08-1.6-.17v-11.58c0-4.04-1.98-5.98-4.97-5.98-2.32,0-4.84,1.6-5.85,3.5v12.93c0,.8-.46,1.31-1.85,1.31-.59,0-1.26-.08-1.6-.17V11.58c.34-.08,1.01-.17,1.6-.17,1.39,0,1.85.51,1.85,1.31v1.73c1.47-1.81,3.71-3.24,6.7-3.24,4.13,0,7.58,2.61,7.58,8.59Z"/>
          <path class="cls-13" d="M118.77,22.95h-15.67c.46,3.92,3.16,6.11,7.16,6.11,1.73,0,3.07-.34,4.34-.76.88-.3,1.26-.42,1.6-.42.97,0,1.6.8,1.43,2.65-1.81.8-4.59,1.68-7.5,1.68-6.32,0-10.57-4.25-10.57-10.57s4.51-10.44,10.02-10.44c6.23,0,9.31,4.84,9.31,9.73,0,.59-.04,1.31-.13,2.02ZM103.11,20.25h12.42c-.13-3.45-2.36-6.15-5.94-6.15-3.12,0-5.94,2.15-6.49,6.15Z"/>
          <path class="cls-13" d="M150.66,11.91l-5.35,18.61c-.34,1.18-1.22,1.47-2.48,1.47-.72,0-1.43-.13-2.02-.3l-5.1-16.38-4.8,15.2c-.38,1.18-1.31,1.47-2.44,1.47-.72,0-1.52-.13-2.11-.3l-5.73-19.79c.51-.25,1.43-.51,2.19-.51.97,0,1.47.3,1.73,1.22l4.04,15.54h.04l5.01-16.26c.59-.34,1.35-.51,2.15-.51,1.31,0,2.02.3,2.4,1.52l4.63,15.24h.04l3.92-15.54c.25-.93.76-1.22,1.73-1.22.76,0,1.64.25,2.15.51Z"/>
          <path class="cls-13" d="M152.93,30.82c-.25-1.77.29-2.7,1.31-2.7s3.33,1.05,6.61,1.05c3.45,0,4.76-1.22,4.76-2.82,0-1.14-.51-2.15-3.62-2.99l-3.58-.97c-3.96-1.05-5.52-3.03-5.52-5.47,0-3.03,2.4-5.73,7.83-5.73,2.44,0,5.47.55,7.33,1.26.34,1.73-.21,2.65-1.26,2.65-.93,0-3.03-.88-6.02-.88-3.2,0-4.38,1.09-4.38,2.53,0,1.01.46,1.94,3.33,2.74l3.66,1.01c4.08,1.14,5.73,3.03,5.73,5.73,0,3.16-2.44,5.98-8.34,5.98-2.61,0-5.85-.63-7.83-1.39Z"/>
        </g>
      </g>
      <g>
        <path class="cls-1" d="M194.1,6.42c0,1.29-.27,1.56-1.53,1.56h-2.39c-1.27,0-1.52-.27-1.52-1.56v-2.43c0-1.29.26-1.55,1.52-1.55h2.39c1.26,0,1.53.26,1.53,1.55v2.43ZM201.58,6.42c0,1.29-.26,1.56-1.52,1.56h-2.39c-1.26,0-1.52-.27-1.52-1.56v-2.43c0-1.29.26-1.55,1.52-1.55h2.39c1.26,0,1.52.26,1.52,1.55v2.43Z"/>
        <g class="cls-14">
          <path class="cls-8" d="M192.58,2.44h-2.39c-1.27,0-1.52.26-1.52,1.55v2.43c0,1.29.26,1.56,1.52,1.56h2.39c1.26,0,1.53-.27,1.53-1.56v-2.43c0-1.29-.27-1.55-1.53-1.55Z"/>
          <path class="cls-10" d="M225.52,15.39v.5l4.29-.14c.49-.02.96.2,1.26.59l.17.21v-5.52c-5.81,0-5.71,4.37-5.71,4.37Z"/>
          <path class="cls-6" d="M212.44,15.02v2.18l.34-.39c.28-.32.67-.5,1.1-.52l4.26-.15v-5.12c-4.93,0-5.62,2.94-5.7,4Z"/>
          <path class="cls-4" d="M200.77,11.02h-7.82s-6.65-.46-8.64,6.3l-.16.59-.16.79.42-.41c.67-.65,1.55-1.03,2.48-1.06l5.06-.18c.84-.36,1.57-.4,1.57-.4h5.34v.16s4.98-.17,4.98-.17c.67-.02,1.21-.58,1.21-1.25h0c0-4.56-4.29-4.37-4.29-4.37Z"/>
          <path class="cls-5" d="M238.59,15.33v1.09l.27-.42c.24-.37.65-.61,1.09-.62l4.35-.15v-4.28c-5.97,0-5.71,4.38-5.71,4.38Z"/>
          <path class="cls-9" d="M265.89,10.95h-9.36c-3.06,0-5.54,1.66-6.96,4.09l-.4.78.86-.48c.39-.22.82-.34,1.26-.35l13.34-.46c.57-.02,1.05-.43,1.16-.99.27-1.34.11-2.58.11-2.58Z"/>
          <path class="cls-7" d="M200.06,2.44h-2.39c-1.26,0-1.52.26-1.52,1.55v2.43c0,1.29.26,1.56,1.52,1.56h2.39c1.26,0,1.52-.27,1.52-1.56v-2.43c0-1.29-.26-1.55-1.52-1.55Z"/>
        </g>
      </g>
    </g>
  </g>
</svg>