<?xml version="1.0" encoding="utf-8"?>
<!-- Generator: Adobe Illustrator 24.2.1, SVG Export Plug-In . SVG Version: 6.00 Build 0)  -->
<svg version="1.1" id="Layer_1" xmlns="http://www.w3.org/2000/svg" xmlns:xlink="http://www.w3.org/1999/xlink" x="0px" y="0px"
	 viewBox="0 0 226.6 40.5" style="enable-background:new 0 0 226.6 40.5;" xml:space="preserve">
<style type="text/css">
	.st0{fill-rule:evenodd;clip-rule:evenodd;fill:url(#SVGID_1_);}
	.st1{fill-rule:evenodd;clip-rule:evenodd;fill:url(#SVGID_2_);}
	.st2{fill-rule:evenodd;clip-rule:evenodd;fill:url(#SVGID_3_);}
	.st3{fill:#263C46;}
</style>
<g>
	
		<linearGradient id="SVGID_1_" gradientUnits="userSpaceOnUse" x1="229.435" y1="29.2179" x2="118.3042" y2="14.5043" gradientTransform="matrix(1 0 0 -1 0 41.2756)">
		<stop  offset="0" style="stop-color:#3CBFD4"/>
		<stop  offset="0.1006" style="stop-color:#2EB7D1"/>
		<stop  offset="0.284" style="stop-color:#19ACCD"/>
		<stop  offset="0.405" style="stop-color:#11A8CB"/>
		<stop  offset="0.5913" style="stop-color:#18A1CA"/>
		<stop  offset="0.8622" style="stop-color:#2B8EC6"/>
		<stop  offset="1" style="stop-color:#3781C3"/>
	</linearGradient>
	<path class="st0" d="M155,2.5v36.8h6.2c2.3,0,4.1-1.1,4.1-3.4v-6.5h8.4l6.7,9.9h11.2l-8-11.8c0.9-0.4,2.2-1.5,2.8-2.1
		c8.1-8.3,4.3-22.9-6.8-25.6c-2.4-0.6-5-0.4-7.5-0.4h-14.9C155.3-0.5,155,0.9,155,2.5L155,2.5z M174.1,9l-8.8,0.1v10.7h8.2
		C182.9,19.9,182.2,9,174.1,9L174.1,9z"/>
	
		<linearGradient id="SVGID_2_" gradientUnits="userSpaceOnUse" x1="228.6327" y1="35.2777" x2="117.5019" y2="20.5641" gradientTransform="matrix(1 0 0 -1 0 41.2756)">
		<stop  offset="0" style="stop-color:#3CBFD4"/>
		<stop  offset="0.1006" style="stop-color:#2EB7D1"/>
		<stop  offset="0.284" style="stop-color:#19ACCD"/>
		<stop  offset="0.405" style="stop-color:#11A8CB"/>
		<stop  offset="0.5913" style="stop-color:#18A1CA"/>
		<stop  offset="0.8622" style="stop-color:#2B8EC6"/>
		<stop  offset="1" style="stop-color:#3781C3"/>
	</linearGradient>
	<path class="st1" d="M117.4,1.1v8h12.5v30.2h6.2c2.7,0,4.3-1.4,4.3-3.4V9.1h9.2c1.6,0,3.2-1.3,3.2-3v-6.7H119
		C118-0.5,117.4,0.3,117.4,1.1L117.4,1.1z"/>
	
		<linearGradient id="SVGID_3_" gradientUnits="userSpaceOnUse" x1="229.9291" y1="25.4861" x2="118.7983" y2="10.7725" gradientTransform="matrix(1 0 0 -1 0 41.2756)">
		<stop  offset="0" style="stop-color:#3CBFD4"/>
		<stop  offset="0.1006" style="stop-color:#2EB7D1"/>
		<stop  offset="0.284" style="stop-color:#19ACCD"/>
		<stop  offset="0.405" style="stop-color:#11A8CB"/>
		<stop  offset="0.5913" style="stop-color:#18A1CA"/>
		<stop  offset="0.8622" style="stop-color:#2B8EC6"/>
		<stop  offset="1" style="stop-color:#3781C3"/>
	</linearGradient>
	<path class="st2" d="M191.8,1.9v7.3h12.6v30.2h6.2c2.7,0,4.2-1.4,4.2-3.4V9.2h9.4c1.8,0,3.2-1.5,3.2-3.3v-6.4h-33.7
		C192-0.5,191.8,0.7,191.8,1.9L191.8,1.9z"/>
	<g>
		<g>
			<path class="st3" d="M68.4-0.2H61c-1.2,0-2.2,1-2.2,2.2v15.3c0,2.1-1.6,3.9-3.7,4.1c-2.3,0.2-4.2-1.7-4.2-3.9V2
				c0-1.2-1-2.2-2.2-2.2h-9.9c-6.6,0-12,5.4-12,12v8.3H15.7c-2.8,0-5.2-2.1-5.5-4.8c-0.3-3.2,2.2-5.9,5.3-5.9h0.8
				c1.2,0,2.2-1,2.2-2.2v-7.4h-2.6C7.6-0.2,0.6,6.6,0.7,15c0.1,8.1,6.8,14.7,14.9,14.7h20.9V11.8c0-1.3,1.1-2.4,2.4-2.4h2.5v7.8
				c0,7.4,5.8,13.6,13.1,13.8c7.6,0.2,13.9-5.9,13.9-13.5V-0.2z"/>
			<path class="st3" d="M104,9.4h6.3c1.2,0,2.2-1,2.2-2.2v-7.4h-8.4c-8,0-14.8,6.2-15.2,14.3c-0.1,2.1,0.3,4.1,1,6h-4.5V-0.2H78
				c-1.2,0-2.2,1-2.2,2.2v21.9c0,3.6-2.9,6.5-6.5,6.5h-1c-1.2,0-2.2,1-2.2,2.2V40h3.1c6.8,0,12.7-4.3,15-10.3h26
				c1.2,0,2.2-1,2.2-2.2v-7.4h-8.6c-3.1,0-5.6-2.7-5.3-5.9C98.7,11.4,101.2,9.4,104,9.4z"/>
		</g>
		<circle class="st3" cx="54.6" cy="36.2" r="3.7"/>
		<circle class="st3" cx="29" cy="36.2" r="3.7"/>
		<circle class="st3" cx="20.5" cy="36.2" r="3.7"/>
	</g>
</g>
</svg>
