<svg width="119" height="52" viewBox="0 0 119 52" fill="none" xmlns="http://www.w3.org/2000/svg">
<path d="M52.8689 26.4238C53.4662 26.4238 53.996 26.4634 54.4558 26.542C54.9156 26.6206 55.3881 26.7169 55.8708 26.8291H61.7029V30.8828H59.7361C60.0584 31.2432 60.2185 31.7403 60.2185 32.3701C60.2184 34.1946 59.6032 35.6527 58.3728 36.7451C57.1423 37.8375 55.2834 38.3838 52.7996 38.3838C52.4774 38.3838 52.1324 38.3495 51.7644 38.2822C51.557 38.3944 51.4018 38.5306 51.2986 38.6875C51.1954 38.8459 51.1423 38.9923 51.1423 39.127C51.1424 39.4873 51.3035 39.7129 51.6257 39.8027C51.9481 39.8925 52.6042 39.961 53.5925 40.0059L55.9041 40.1074C57.7676 40.1748 59.2174 40.6024 60.2517 41.3906C61.2872 42.1788 61.8044 43.4176 61.8044 45.1074L61.8054 45.1084C61.8054 46.031 61.5817 46.9039 61.1335 47.7256C60.6852 48.5474 60.0402 49.2796 59.2009 49.9219C58.3602 50.5642 57.3484 51.0707 56.1638 51.4424C54.978 51.814 53.6496 52 52.1785 52C49.8093 52 47.9738 51.5884 46.6746 50.7666C45.3741 49.9435 44.7244 48.6888 44.7244 46.999C44.7244 46.5937 44.7926 46.1929 44.9314 45.7988C45.0689 45.4049 45.254 45.0336 45.4832 44.6846C45.7124 44.3354 45.9778 44.0255 46.2771 43.7549C46.5764 43.4843 46.8862 43.2599 47.2097 43.0791C46.7028 42.8309 46.2998 42.4827 46.0017 42.0312C45.7025 41.5811 45.5535 41.0636 45.5535 40.4775C45.5535 39.8017 45.7546 39.1771 46.157 38.6035C46.5595 38.0286 47.0603 37.6183 47.6589 37.3701C46.8768 36.9648 46.2484 36.3793 45.7771 35.6123C45.306 34.8467 45.0711 33.9225 45.071 32.8428C45.071 31.9874 45.2313 31.1704 45.5535 30.3936C45.8757 29.6166 46.3646 28.9348 47.0193 28.3486C47.6753 27.7637 48.4861 27.2965 49.4529 26.9473C50.4183 26.5981 51.5583 26.4238 52.8689 26.4238ZM51.075 43.9248C50.6841 44.2402 50.3848 44.5718 50.1785 44.9209C49.9709 45.2701 49.8679 45.6357 49.8679 46.0186C49.8679 46.6484 50.1381 47.1562 50.6794 47.5391C51.2195 47.9218 51.9736 48.1143 52.9402 48.1143C54.1821 48.1142 55.1084 47.8877 55.7185 47.4375C56.327 46.9861 56.6325 46.4352 56.6326 45.7832H56.6306C56.6306 45.3105 56.4682 44.9098 56.1472 44.583C55.8249 44.2564 55.2617 44.0703 54.4568 44.0254L51.7312 43.958H51.3865C51.2718 43.958 51.1667 43.9473 51.075 43.9248ZM16.9802 26.457C18.292 26.4571 19.3719 26.6431 20.2927 27.0146C21.2124 27.3863 21.9714 27.8992 22.5701 28.5527C23.1675 29.2062 23.6065 29.9767 23.8816 30.8672C24.1579 31.7576 24.2947 32.7079 24.2947 33.7217H24.2966C24.2966 34.1269 24.2795 34.5995 24.2439 35.1406C24.2095 35.6819 24.1574 36.1552 24.0886 36.5605H13.9099C13.9329 37.6417 14.2664 38.4862 14.9109 39.0947C15.5541 39.7033 16.6371 40.0058 18.1541 40.0059C19.8329 40.0059 21.5133 39.6799 23.1921 39.0264L23.7087 42.877C22.7191 43.2373 21.6672 43.513 20.5515 43.7051C19.4357 43.8959 18.348 43.9922 17.2908 43.9922C14.4834 43.9922 12.3331 43.305 10.8376 41.9307C9.34222 40.5575 8.59448 38.3834 8.59448 35.4102C8.59451 34.1494 8.78429 32.9723 9.16382 31.8799C9.54341 30.7874 10.0901 29.8417 10.8035 29.041C11.5167 28.2418 12.3953 27.6108 13.4421 27.1494C14.4892 26.688 15.6682 26.457 16.9802 26.457ZM87.9607 26.4248C88.4204 26.4248 88.9144 26.4537 89.4441 26.5098C89.9727 26.5659 90.4799 26.6387 90.9626 26.7285L90.7908 30.75C90.3539 30.5929 89.8762 30.4795 89.3591 30.4121C88.8421 30.3448 88.3299 30.3106 87.823 30.3105C87.1555 30.3105 86.6609 30.4291 86.3386 30.666C86.0164 30.903 85.8562 31.2128 85.8562 31.5957C85.8563 31.956 86.0181 32.2492 86.3416 32.4736C86.665 32.6993 87.0639 32.912 87.5388 33.1152C88.0127 33.3185 88.5274 33.5321 89.0828 33.7578C89.6381 33.9835 90.1516 34.2766 90.6267 34.6357C91.1005 34.9962 91.4992 35.4645 91.824 36.0381C92.1473 36.6129 92.3093 37.3497 92.3093 38.251L92.3103 38.249C92.3103 39.127 92.1254 39.9213 91.7585 40.6309C91.3904 41.3405 90.8672 41.9434 90.1882 42.4385C89.5094 42.9335 88.6929 43.3163 87.739 43.5869C86.7837 43.8575 85.7198 43.9922 84.5466 43.9922C83.1659 43.9922 81.9009 43.8338 80.7507 43.5195L81.0271 39.3301C82.0855 39.7815 83.2815 40.0058 84.615 40.0059C85.2811 40.0059 85.7996 39.8873 86.1677 39.6504C86.5359 39.4134 86.7195 39.0928 86.7195 38.6875C86.7194 38.2825 86.5641 37.9624 86.2537 37.7256C85.9429 37.4886 85.5511 37.2814 85.0798 37.1006C84.6087 36.9198 84.1021 36.7286 83.5623 36.5254C83.0222 36.3221 82.515 36.0411 82.0437 35.6807C81.5725 35.3203 81.1816 34.8528 80.8708 34.2793C80.5601 33.7044 80.4041 32.9561 80.4041 32.0332C80.4041 31.2675 80.5536 30.5417 80.8503 29.8545C81.1471 29.1674 81.6038 28.571 82.2214 28.0635C82.838 27.5571 83.6221 27.1564 84.571 26.8633C85.5199 26.5703 86.6501 26.4248 87.9607 26.4248ZM37.2371 26.458C38.2024 26.458 39.0089 26.599 39.6521 26.8809C40.2952 27.1627 40.8138 27.5455 41.2048 28.0293C41.5958 28.5143 41.8773 29.082 42.0505 29.7354C42.2225 30.3889 42.3093 31.077 42.3093 31.7979V43.623H37.0632V32.9434C37.0632 32.2675 36.949 31.7383 36.7185 31.3555C36.4879 30.9727 36.0736 30.7812 35.4763 30.7812C35.0154 30.7813 34.5799 30.9107 34.1648 31.1699C33.7508 31.4293 33.3874 31.7788 33.0779 32.2178C32.7671 32.6567 32.5201 33.158 32.3367 33.7217C32.152 34.2853 32.0603 34.8701 32.0603 35.4785V43.6221H26.8142V26.8301H31.7146C31.7146 27.1456 31.7033 27.5626 31.6804 28.0801C31.6575 28.5986 31.6002 29.0597 31.5085 29.4648L31.5427 29.499C32.0713 28.621 32.8079 27.894 33.7517 27.3203C34.6943 26.7454 35.8576 26.458 37.2371 26.458ZM100.005 25.6807C100.005 26.1769 99.9885 26.7459 99.9529 27.3867C99.9185 28.0288 99.8429 28.6085 99.7283 29.126H99.7634C100.269 28.3379 100.976 27.6953 101.885 27.2002C102.794 26.7052 103.893 26.457 105.18 26.457C106.146 26.457 106.952 26.5981 107.595 26.8799C108.239 27.1617 108.757 27.5445 109.148 28.0283C109.539 28.5134 109.821 29.081 109.994 29.7344C110.166 30.3878 110.253 31.0752 110.253 31.7959V43.6221H105.008L105.009 43.6201V32.9434C105.009 32.2678 104.894 31.7392 104.664 31.3564C104.433 30.9736 104.019 30.7813 103.422 30.7812C102.961 30.7812 102.524 30.9105 102.109 31.1699C101.695 31.4293 101.333 31.7789 101.023 32.2178C100.712 32.6568 100.465 33.1646 100.282 33.7383C100.097 34.3132 100.005 34.9031 100.005 35.5117V43.6201H94.7595V18.957H100.005V25.6807ZM69.1912 43.6201H63.9451V18.957H69.1912V43.6201ZM77.8513 43.6201H72.6062V26.8281H77.8513V43.6201ZM52.6609 30.1396C51.856 30.1397 51.2293 30.3599 50.781 30.7988C50.3328 31.2378 50.1082 31.8078 50.1082 32.5049C50.1082 33.248 50.3215 33.834 50.7468 34.2617C51.1723 34.6894 51.822 34.9043 52.697 34.9043C53.5019 34.9043 54.1286 34.6958 54.5769 34.2793C55.0252 33.8628 55.2497 33.294 55.2498 32.5732C55.2498 31.8524 55.0365 31.2669 54.6111 30.8154C54.1856 30.3654 53.5358 30.1396 52.6609 30.1396ZM16.7058 30.21C15.9469 30.21 15.314 30.4741 14.8083 31.0039C14.3015 31.5339 14.0026 32.2599 13.9109 33.1826H19.1228L19.1208 33.1816C19.1667 32.1678 18.9657 31.4194 18.5173 30.9355C18.069 30.4517 17.465 30.21 16.7058 30.21ZM75.2283 18.7871C75.665 18.7871 76.0857 18.8652 76.488 19.0234C76.8906 19.1818 77.2363 19.3954 77.5242 19.666C77.8108 19.9366 78.0414 20.2573 78.2146 20.6289C78.3866 21.0006 78.4734 21.4013 78.4734 21.8291C78.4733 22.2566 78.3864 22.6568 78.2146 23.0283C78.0427 23.3999 77.812 23.7206 77.5242 23.9912C77.2363 24.2618 76.8906 24.4754 76.488 24.6338C76.0856 24.7921 75.6651 24.8691 75.2283 24.8691C74.7916 24.8691 74.3779 24.7908 73.9871 24.6338C73.596 24.4766 73.2551 24.2618 72.9685 23.9912C72.6808 23.7206 72.4513 23.3999 72.2781 23.0283C72.105 22.6569 72.0203 22.2579 72.0203 21.8291C72.0203 21.424 72.1063 21.0346 72.2781 20.6631C72.45 20.2916 72.6808 19.9644 72.9685 19.6826C73.2551 19.4008 73.596 19.1806 73.9871 19.0234C74.3779 18.8665 74.7917 18.7871 75.2283 18.7871ZM75.5925 0C77.1999 0 78.4141 0.310411 79.2332 0.932617C80.0521 1.55487 80.4616 2.43039 80.4617 3.55762C80.4617 4.30965 80.2512 4.98377 79.8308 5.57617C79.4105 6.16973 78.8091 6.61135 78.0271 6.89941V6.94238C78.8971 7.08705 79.5954 7.46393 80.1189 8.07129C80.6424 8.67865 80.905 9.41714 80.905 10.2852H80.906C80.906 10.8065 80.8062 11.3341 80.6062 11.8691C80.4075 12.4041 80.075 12.8893 79.6101 13.3232C79.1452 13.7572 78.5363 14.1091 77.7849 14.376C77.0322 14.6428 76.1036 14.7773 74.9968 14.7773C74.4797 14.7773 73.8859 14.7696 73.2146 14.7559C72.5434 14.7409 71.7867 14.7279 70.946 14.7129V0.0644531C71.5358 0.0507353 72.2301 0.0364493 73.0261 0.0214844C73.8234 0.00776772 74.6781 2.18998e-06 75.5925 0ZM26.1101 12.6553H31.2449V14.6533L36.5339 0.0869141H39.3005L44.6785 14.7129H41.9998L40.8708 11.4834H34.8074L33.657 14.7129H31.2449V14.7139H23.6765V0.0869141H26.1101V12.6553ZM50.0994 0.000976562C50.8662 0.000976562 51.5707 0.0740804 52.2126 0.21875C52.8546 0.36342 53.4079 0.589861 53.8728 0.900391C54.3376 1.21087 54.6952 1.61884 54.946 2.125C55.1969 2.63124 55.322 3.24488 55.322 3.9668C55.322 4.55904 55.2153 5.09073 55.0027 5.55957C54.79 6.02975 54.4975 6.44198 54.1306 6.79492C53.7626 7.14893 53.3321 7.43471 52.8406 7.65039C52.3477 7.86735 51.8225 8.00416 51.2634 8.06152C51.4698 8.32093 51.6827 8.58565 51.9031 8.85254C52.1234 9.11939 52.3227 9.37641 52.4998 9.62207L56.1472 14.5137L61.3865 0.0869141H64.1531L69.531 14.7129H66.8523L65.7234 11.4834H59.6609L58.5105 14.7129H56.2957L56.2966 14.7139H53.2927V14.7129L48.7927 8.38574H48.5281V14.7129H46.0935V0.0869141C46.6387 0.0582326 47.2338 0.0374257 47.8757 0.0224609C48.5176 0.00874682 49.2588 0.000977161 50.0994 0.000976562ZM22.2605 14.7129H19.5818L18.4539 11.4834H12.3904L11.24 14.7129H8.80444L14.116 0.0869141H16.8826L22.2605 14.7129ZM85.8171 14.7129H83.3835V0.0869141H85.8171V14.7129ZM91.8835 4.70312C92.2848 5.56984 92.6425 6.39315 92.9558 7.17383H93.0007C93.1651 6.74107 93.3548 6.29277 93.5701 5.83008C93.7853 5.3675 94.0116 4.90593 94.2498 4.44336L96.3523 0.0869141H98.8972L94.1394 9.49121V14.7129H91.7048V9.49121L87.0349 0.0869141H89.6687L91.8835 4.70312ZM110.405 14.7129H107.728L106.599 11.4834H100.535L99.3845 14.7129H96.9509L102.26 0.0869141H105.027L110.405 14.7129ZM73.699 8.07227C73.5741 8.07975 73.4666 8.08398 73.3787 8.08398V12.7861C73.5696 12.8148 73.8374 12.8401 74.1824 12.8613C74.5276 12.8825 74.8481 12.8945 75.1423 12.8945C76.2439 12.8945 77.0516 12.6588 77.5662 12.1875C78.0794 11.7162 78.3366 11.1173 78.3367 10.3916L78.3376 10.3896C78.3376 9.56299 78.0105 8.96836 77.3572 8.60547C76.7038 8.24258 75.8186 8.06156 74.7029 8.06152H74.0847C73.9523 8.06152 73.8237 8.06479 73.699 8.07227ZM15.3777 2.64355C15.3038 2.94661 15.214 3.26494 15.1121 3.59668C15.0089 3.92953 14.8984 4.26868 14.78 4.61523L12.988 9.59961H17.8347L16.0427 4.63672H16.0408C15.9223 4.27639 15.8088 3.92959 15.698 3.59668C15.5872 3.26502 15.4955 2.94654 15.4216 2.64355H15.3777ZM37.7957 2.64355C37.7218 2.94658 37.6329 3.26498 37.531 3.59668C37.4279 3.92949 37.3174 4.26872 37.199 4.61523L35.406 9.59961H40.2527L38.4607 4.63672H38.4597C38.3413 4.27634 38.2277 3.92963 38.1169 3.59668C38.0061 3.26497 37.9144 2.94659 37.8406 2.64355H37.7957ZM62.6472 2.64355C62.5733 2.94656 62.4847 3.265 62.3816 3.59668C62.2785 3.92956 62.167 4.26864 62.0486 4.61523L60.2566 9.59961H65.1033L63.3113 4.63672C63.1928 4.27634 63.0793 3.92962 62.9685 3.59668C62.8577 3.26497 62.766 2.94658 62.6921 2.64355H62.6472ZM103.523 2.64355C103.449 2.94661 103.36 3.26494 103.257 3.59668C103.153 3.92953 103.043 4.26868 102.925 4.61523L101.133 9.59961H105.979L104.187 4.63672C104.069 4.27631 103.955 3.92965 103.844 3.59668C103.734 3.26495 103.642 2.94661 103.568 2.64355H103.523ZM49.1003 1.94043C48.8955 1.94791 48.7046 1.95895 48.5291 1.97266V6.61035C48.6462 6.6253 48.8044 6.6351 49.0017 6.64258C49.2004 6.65005 49.4312 6.65332 49.696 6.65332C50.6639 6.65326 51.4242 6.43362 51.9744 5.99219C52.5246 5.55195 52.7996 4.96357 52.7996 4.22656V4.22559C52.7996 3.41743 52.5499 2.83113 52.0505 2.4707C51.5513 2.11042 50.7963 1.92973 49.7839 1.92969C49.5343 1.92969 49.3054 1.93295 49.1003 1.94043ZM74.239 1.89648C73.9308 1.90397 73.6442 1.91597 73.3806 1.92969V6.28418C73.5855 6.29913 73.7878 6.30566 73.9851 6.30566H74.657C75.7727 6.30563 76.5942 6.09577 77.1228 5.67676C77.6513 5.25772 77.9148 4.68037 77.9148 3.94336H77.9177C77.9177 3.3511 77.719 2.85977 77.323 2.4707C76.9268 2.08034 76.2142 1.88574 75.1863 1.88574C74.8629 1.88574 74.5471 1.88901 74.239 1.89648Z" fill="white"/>
</svg>
