<?xml version="1.0" encoding="UTF-8" standalone="no"?>
<svg
   version="1.1"
   id="NHK_World_Japan"
   x="0px"
   y="0px"
   viewBox="0 0 500 115.96831"
   xml:space="preserve"
   xmlns="http://www.w3.org/2000/svg"
   xmlns:svg="http://www.w3.org/2000/svg"><defs
   id="defs372" />
<style
   type="text/css"
   id="style350">
	.st0{fill:#FFFFFF;}
	.st1{fill:#727171;}
	.st2{fill:#E60019;}
	.st3{fill:#3E3A2F;}
</style>
<rect
   id="rect4"
   y="0"
   class="st0"
   width="500"
   height="74.066551"
   x="0"
   style="stroke-width:1" /><rect
   id="rect8"
   x="471.80679"
   y="0"
   class="st1"
   width="28.193211"
   height="74.066551"
   style="stroke-width:0.999999" /><rect
   id="rect10"
   y="71.574471"
   class="st2"
   width="500"
   height="44.393833"
   x="0"
   style="stroke-width:1" /><polygon
   id="_80767200"
   class="st3"
   points="277.4,67.9 267,67.9 261.8,34.3 261.6,34.3 256.4,67.9 246,67.9 237.5,21.6 246.5,21.6 251.6,55.9 251.7,55.9 257.2,21.6 266.2,21.6 271.6,55.9 271.7,55.9 276.9,21.6 285.9,21.6 "
   transform="matrix(1.0101444,0,0,1.0140712,-9.4251721,-6.9434213)"
   style="stroke-width:0.988039" /><path
   id="_80767296"
   class="st3"
   d="M 288.97149,28.549071 C 289.27453,25.506858 290.08265,22.97168 291.19381,20.84213 292.30496,18.712581 293.9212,16.98866 295.94148,15.771774 298.06279,14.554889 300.79018,13.946446 304.4267,13.946446 307.9622,13.946446 310.79061,14.554889 312.91191,15.771774 315.03321,16.98866 316.64944,18.712581 317.65959,20.84213 318.77075,22.97168 319.47785,25.608265 319.88191,28.549071 320.18495,31.591285 320.38698,34.836313 320.38698,38.385562 320.38698,42.036218 320.18495,45.281246 319.88191,48.222053 319.57886,51.264266 318.87176,53.698037 317.65959,55.928994 316.54843,58.058543 314.9322,59.681057 312.91191,60.897943 310.79061,62.013421 307.9622,62.621864 304.4267,62.621864 300.89119,62.621864 298.06279,62.114828 295.94148,60.897943 293.82018,59.782464 292.20395,58.15995 291.19381,55.928994 290.08265,53.799444 289.37555,51.162859 288.97149,48.222053 288.66844,45.179839 288.46642,41.934811 288.46642,38.385562 288.46642,34.836313 288.66844,31.591285 288.97149,28.549071 Z M 298.1638,46.498132 V 46.498132 C 298.36583,48.729088 298.66887,50.554416 299.07293,51.872709 299.578,53.292409 300.18409,54.205073 300.99221,54.914923 301.80032,55.624772 302.91148,55.827587 304.32568,55.827587 305.73988,55.827587 306.85104,55.523365 307.65916,54.914923 308.46727,54.30648 309.17438,53.292409 309.57843,51.872709 310.08351,50.554416 310.38655,48.729088 310.48756,46.498132 310.68959,44.267175 310.68959,41.63059 310.68959,38.486969 310.68959,35.343348 310.58858,32.605356 310.48756,30.475807 310.28553,28.24485 309.98249,26.419522 309.57843,25.101229 309.07336,23.68153 308.46727,22.667458 307.65916,22.059016 306.75003,21.450573 305.73988,21.146352 304.32568,21.146352 302.91148,21.146352 301.80032,21.450573 300.99221,22.059016 300.18409,22.667458 299.47699,23.68153 299.07293,25.101229 298.56786,26.520929 298.26482,28.346257 298.1638,30.475807 297.96177,32.706763 297.96177,35.343348 297.96177,38.486969 297.96177,41.529183 298.06279,44.267175 298.1638,46.498132 Z"
   style="stroke-width:1" /><path
   id="_80767368"
   class="st3"
   d="M 350.69131,14.960517 C 354.63087,14.960517 357.66131,15.974589 359.88362,18.002731 362.10594,19.929466 363.2171,23.073087 363.2171,27.129372 363.2171,30.272992 362.61101,32.909578 361.29783,34.836313 360.08565,36.864455 358.06536,38.182748 355.43899,38.689783 V 38.892598 C 357.76232,39.298226 359.47957,40.008076 360.59073,41.224961 361.70188,42.441847 362.40899,44.267175 362.61101,47.005167 362.71203,47.917831 362.81304,48.830495 362.81304,49.844567 362.91406,50.858638 362.91406,52.075523 363.01507,53.292409 363.11609,55.827587 363.2171,57.754322 363.41913,59.072615 363.62116,60.390907 364.22725,61.303571 365.13638,61.7092 V 62.013421 H 354.93392 C 354.42884,61.404978 354.1258,60.593721 354.02479,59.681057 353.92377,58.768393 353.82276,57.957136 353.82276,57.044472 L 353.31769,48.019238 C 353.21667,46.19391 352.81261,44.672804 351.90348,43.658732 351.09537,42.644661 349.68117,42.036218 347.76189,42.036218 H 342.71117 V 61.912014 H 333.31683 V 14.960517 Z M 346.54972,35.444756 V 35.444756 C 348.87305,35.444756 350.5903,34.93772 351.80247,33.822242 353.01464,32.706763 353.62073,30.881435 353.62073,28.346257 353.62073,23.985751 351.39841,21.754794 347.05479,21.754794 H 342.61016 V 35.343348 H 346.54972 Z"
   style="stroke-width:1" /><polygon
   id="_80767440"
   class="st3"
   points="407.9,60.3 407.9,67.9 382,67.9 382,21.6 391.3,21.6 391.3,60.3 "
   transform="matrix(1.0101444,0,0,1.0140712,-9.4251721,-6.9434213)"
   style="stroke-width:0.988039" /><path
   id="_80767512"
   class="st3"
   d="M 429.78562,14.960517 C 433.11909,14.960517 435.74547,15.467553 437.76576,16.583031 439.68503,17.69851 441.30126,19.219616 442.51344,21.146352 443.6246,23.073087 444.43271,25.608265 444.83677,28.447664 445.24083,31.287064 445.44286,34.430684 445.44286,37.878526 445.44286,42.036218 445.24083,45.585468 444.63474,48.729088 444.12967,51.771302 443.32155,54.30648 442.00836,56.334622 440.79619,58.261358 439.17996,59.782464 437.05866,60.796536 435.03837,61.7092 432.41199,62.216235 429.28054,62.216235 H 414.33041 V 14.960517 Z M 427.96736,55.01633 V 55.01633 C 429.58359,55.01633 430.99779,54.813516 432.00793,54.103666 433.01808,53.59663 433.82619,52.582559 434.43228,51.264266 434.93735,49.945974 435.34141,48.222053 435.64445,46.092503 435.84648,43.962954 435.9475,41.326369 435.9475,38.081341 435.9475,35.444756 435.84648,33.010985 435.74547,31.084249 435.54344,29.056107 435.2404,27.332186 434.63431,26.013893 434.12924,24.695601 433.32112,23.68153 432.20996,22.97168 431.19982,22.26183 429.6846,21.957609 427.86634,21.957609 H 423.82577 V 54.914923 Z"
   style="stroke-width:1" /><path
   id="path28"
   class="st0"
   d="M 260.78391,77.061214 V 101.26121 C 260.78391,108.46121 257.21975,111.36121 249.87542,111.36121 242.09908,111.36121 240.263,106.76121 240.263,101.46121 V 99.961214 H 246.9593 V 101.06121 C 246.9593,104.66121 247.60732,106.36121 250.19944,106.36121 252.79155,106.36121 253.43958,104.66121 253.43958,101.06121 V 77.061214 Z"
   style="stroke-width:1.03925" /><path
   id="path30"
   class="st0"
   d="M 293.95543,77.061214 H 303.02783 L 312.64026,110.66121 H 304.97192 L 303.24384,103.56121 H 293.52342 L 291.79534,110.66121 H 284.127 Z M 294.92748,98.061214 H 302.05579 L 298.49163,82.961214 H 298.38363 Z"
   style="stroke-width:1.03925" /><path
   id="path32"
   class="st0"
   d="M 334.53918,77.061214 H 347.784 C 355.23634,77.061214 358.12,82.161214 358.12,87.161214 358.12,94.161214 353.37605,97.960865 346.46374,97.960865 H 341.07599 V 110.76121 H 334.43118 Z M 341.184,93.060865 H 346.12373 C 349.03987,93.060865 351.184,90.761214 351.184,87.261214 351.184,83.961214 349.57988,81.460865 345.90773,81.460865 H 341.07599 Z"
   style="stroke-width:1.03925" /><path
   id="path34"
   class="st0"
   d="M 383.4442,77.061214 H 392.5166 L 402.12903,110.66121 H 394.46069 L 392.73261,103.56121 H 383.01218 L 381.28411,110.66121 H 373.61577 Z M 384.41625,98.061214 H 391.54456 L 387.9804,82.961214 H 387.8724 Z"
   style="stroke-width:1.03925" /><polygon
   id="polygon36"
   class="st0"
   points="431,81.6 439.1,104.7 439.2,104.7 439.2,81.6 445.4,81.6 445.4,115.3 437.8,115.3 429.4,91.8 429.4,115.3 423.2,115.3 423.2,81.6 "
   transform="matrix(1.0800477,0,0,1,-32.987658,-4.5387863)"
   style="stroke-width:0.962229" />
<path
   id="path1252"
   class="st3"
   d="M 206.7036,17.526877 A 7.2589891,7.3827346 0 0 0 196.7386,16.150805 L 176.78712,31.222068 178.93475,23.730121 A 6.9368446,7.0550984 0 0 0 174.05963,14.993157 7.1301313,7.2516801 0 0 0 165.18992,19.842172 L 155.69739,52.758684 A 6.9153683,7.033256 0 0 0 160.59399,61.495648 6.8294631,6.9458864 0 0 0 162.54833,61.7796 7.108655,7.2298377 0 0 0 169.37779,56.668476 L 173.43681,42.514594 A 2.0187721,2.0531865 0 0 0 173.65158,42.733018 L 173.88782,43.060654 189.28632,59.529831 A 7.2589891,7.3827346 0 0 0 199.33723,59.901152 6.8294631,6.9458864 0 0 0 199.70233,49.919171 L 189.6729,39.150863 205.32912,27.508858 A 6.8079868,6.924044 0 0 0 206.7036,17.526877 Z"
   style="stroke-width:1" /><path
   id="path1254"
   class="st3"
   d="M 146.5306,14.993157 A 7.1292898,7.2516801 0 0 0 137.74783,19.842172 L 134.37645,31.549704 H 118.35703 L 120.50441,23.730121 A 6.9145522,7.033256 0 0 0 115.62985,14.993157 7.1292898,7.2516801 0 0 0 106.84709,19.842172 L 97.484522,52.758684 A 7.0648685,7.1861529 0 0 0 104.31318,61.757757 7.107816,7.2298377 0 0 0 111.14184,56.646633 L 114.51323,44.982786 H 130.53265 L 128.38528,52.802369 A 7.0648685,7.1861529 0 0 0 135.21394,61.801442 7.0863423,7.2079953 0 0 0 142.04258,56.690318 L 151.40515,23.730121 A 6.9145522,7.033256 0 0 0 146.5306,14.993157 Z"
   style="stroke-width:2.16175" /><path
   id="path1256"
   class="st3"
   d="M 88.165629,14.993157 A 7.1507669,7.2735225 0 0 0 79.382857,19.842172 L 74.22915,37.774791 61.344885,17.963725 A 7.236662,7.3608922 0 0 0 54.322961,14.796575 7.0648718,7.1861529 0 0 0 48.525042,19.842172 L 39.055108,52.758684 A 6.8930816,7.0114136 0 0 0 43.929655,61.495648 6.9360292,7.0550984 0 0 0 45.883768,61.7796 7.0863456,7.2079953 0 0 0 52.712428,56.668476 L 57.866134,38.735857 70.750399,58.546923 A 7.1507669,7.2735225 0 0 0 77.750849,61.69223 7.0004505,7.1206257 0 0 0 83.548768,56.668476 L 92.997228,23.730121 A 6.9360292,7.0550984 0 0 0 88.165629,14.993157 Z"
   style="stroke-width:2.16175" /></svg>
