<?xml version="1.0"?>
<svg xmlns="http://www.w3.org/2000/svg" width="655" height="650">
<path d="m 299.81397,75.200885 c 56.26917,0.03547 110.99745,18.947115 155.91063,53.875665 31.68483,-6.6875 63.10594,4.91718 81.04917,29.93368 17.36328,24.3313 19.10908,57.25178 4.53973,85.60517 11.78388,30.91058 17.86696,63.81543 17.93699,97.0253 v 0.51462 C 559.24987,489.53863 443.33693,609.03646 300.30508,609.10929 157.27012,609.18068 41.242502,489.79473 41.106361,342.4083 40.971236,195.02175 156.77904,75.409259 299.81397,75.201236 Z" style="fill:#ffffff" />
<ellipse style="fill:#010947;fill-rule:evenodd" cx="305.49399" cy="357.21039" rx="209.96204" ry="209.23111" />
<ellipse style="fill:#ffffff;fill-rule:evenodd" cx="478.96268" cy="205.54294" rx="71.487068" ry="72.580177" />
<g transform="matrix(2.750696,0,0,2.7542357,-566.38235,52.119766)">
 <path d="M 336.35863,-18.848136 A 114.91237,122.00322 49.286288 0 0 247.90326,13.80396 114.91237,122.00322 49.286288 0 0 234.23358,180.61509 114.91237,122.00322 49.286288 0 0 402.02257,184.30203 114.91237,122.00322 49.286288 0 0 415.69224,17.490911 114.91237,122.00322 49.286288 0 0 336.35863,-18.848136 Z M 314.90078,8.3802187 a 94.184666,96.9253 0 0 1 56.68043,19.5610233 29.337231,31.594037 46.490686 0 1 29.46496,10.86823 29.337231,31.594037 46.490686 0 1 1.65039,31.081281 94.184666,96.9253 0 0 1 6.52089,35.227657 v 0.18685 a 94.184666,96.9253 0 0 1 -94.13813,96.92487 94.184666,96.9253 0 0 1 -94.23023,-96.83302 94.184666,96.9253 0 0 1 94.05169,-97.0167639 z" style="fill:#54eaed;stroke:none" />
 <path d="m 315.90597,39.94756 a 63.78249,65.632504 0 0 0 -63.78312,65.63319 63.78249,65.632504 0 0 0 63.78312,65.63022 63.78249,65.632504 0 0 0 63.78028,-65.63022 63.78249,65.632504 0 0 0 -2.26677,-17.290775 29.337231,31.594037 46.490686 0 1 -25.31452,-11.508407 29.337231,31.594037 46.490686 0 1 -3.26045,-27.31134 63.78249,65.632504 0 0 0 -32.93854,-9.522668 z" style="fill:#000032;stroke:none" />
</g>
</svg>