<?xml version="1.0" encoding="UTF-8"?>
<svg version="1.1" xmlns="http://www.w3.org/2000/svg" width="262" height="100">
<path d="M0 0 C86.46 0 172.92 0 262 0 C262 33 262 66 262 100 C175.54 100 89.08 100 0 100 C0 67 0 34 0 0 Z " fill="#1F2351" transform="translate(0,0)"/>
<path d="M0 0 C0 5.94 0 11.88 0 18 C4.29 18 8.58 18 13 18 C13 23.28 13 28.56 13 34 C8.71 34 4.42 34 0 34 C0 44.23 0 54.46 0 65 C9.9 65 19.8 65 30 65 C26.84495602 53.95734608 23.41584655 43.06194079 19.6796875 32.20117188 C19.34710938 31.22341797 19.01453125 30.24566406 18.671875 29.23828125 C18.3737793 28.37243408 18.07568359 27.50658691 17.76855469 26.61450195 C17 24 17 24 16 18 C23.92 18 31.84 18 40 18 C40.70125 20.3925 41.4025 22.785 42.125 25.25 C45.04066357 35.17947074 48.01787446 45.09032509 51 55 C55.61346511 42.83115 59.5119644 30.53109084 63 18 C70.92 18 78.84 18 87 18 C86.28121504 20.87513986 85.51166973 23.64672155 84.6171875 26.46484375 C84.20158569 27.77461182 84.20158569 27.77461182 83.77758789 29.11083984 C83.33080688 30.51003662 83.33080688 30.51003662 82.875 31.9375 C82.56876709 32.89865723 82.26253418 33.85981445 81.94702148 34.85009766 C78.722728 44.93104378 75.36755184 54.96607003 72 65 C81.9 65 91.8 65 102 65 C102 70.61 102 76.22 102 82 C15.54 82 -70.92 82 -160 82 C-160 76.39 -160 70.78 -160 65 C-140.2 65 -120.4 65 -100 65 C-100.33 55.43 -100.66 45.86 -101 36 C-104.70415293 33.53056471 -106.62144505 33.53086911 -111 34 C-114.18500272 37.10340691 -114.40551182 39.74488228 -114.51171875 44.078125 C-114.54716797 45.23828125 -114.58261719 46.3984375 -114.61914062 47.59375 C-114.64169922 48.8003125 -114.66425781 50.006875 -114.6875 51.25 C-114.72166016 52.47203125 -114.75582031 53.6940625 -114.79101562 54.953125 C-114.8734653 57.96842746 -114.93840971 60.98419936 -115 64 C-122.59 64 -130.18 64 -138 64 C-138 49.15 -138 34.3 -138 19 C-130.74 19 -123.48 19 -116 19 C-115.505 22.465 -115.505 22.465 -115 26 C-114.63648438 25.52949219 -114.27296875 25.05898438 -113.8984375 24.57421875 C-109.83379832 19.54031945 -106.71950436 16.43272665 -100.01171875 15.65234375 C-93.55725888 15.36200472 -88.91799319 15.74360307 -83.5859375 19.515625 C-81.79522006 21.19166596 -80.41124101 22.99860366 -79 25 C-78.46890625 24.51789062 -77.9378125 24.03578125 -77.390625 23.5390625 C-76.33101562 22.59160156 -76.33101562 22.59160156 -75.25 21.625 C-74.20585937 20.68527344 -74.20585937 20.68527344 -73.140625 19.7265625 C-66.84291648 14.64702387 -59.72479025 15.34135999 -52 16 C-46.58589058 17.51300641 -42.49432829 20.60713015 -39 25 C-34.96587594 32.79672053 -35.66348678 40.96032442 -35.8125 49.5 C-35.8275714 51.00519497 -35.84125547 52.51040451 -35.85351562 54.015625 C-35.88633313 57.67738941 -35.93798011 61.33860021 -36 65 C-32.04 65 -28.08 65 -24 65 C-24 54.77 -24 44.54 -24 34 C-26.64 34 -29.28 34 -32 34 C-32 28.72 -32 23.44 -32 18 C-29.36 18 -26.72 18 -24 18 C-24 15.03 -24 12.06 -24 9 C-18.13409436 6.54075433 -12.26449028 4.08979209 -6.375 1.6875 C-5.57835937 1.36136719 -4.78171875 1.03523438 -3.9609375 0.69921875 C-2 0 -2 0 0 0 Z " fill="#C71315" transform="translate(160,18)"/>
<path d="M0 0 C3.66620114 2.19972069 6.01625606 4.51538359 8.484375 8.015625 C9.01546875 7.53351562 9.5465625 7.05140625 10.09375 6.5546875 C10.80015625 5.92304687 11.5065625 5.29140625 12.234375 4.640625 C13.27851563 3.70089844 13.27851563 3.70089844 14.34375 2.7421875 C20.64145852 -2.33735113 27.75958475 -1.64301501 35.484375 -0.984375 C40.89848442 0.52863141 44.99004671 3.62275515 48.484375 8.015625 C52.51849906 15.81234553 51.82088822 23.97594942 51.671875 32.515625 C51.6568036 34.02081997 51.64311953 35.52602951 51.63085938 37.03125 C51.60061061 40.69336656 51.54186289 44.35343358 51.484375 48.015625 C43.564375 48.015625 35.644375 48.015625 27.484375 48.015625 C27.45859375 46.02917969 27.4328125 44.04273438 27.40625 41.99609375 C27.36452684 40.06987458 27.32266502 38.14365562 27.27685547 36.2175293 C27.23478851 34.22273369 27.21299636 32.22754418 27.19140625 30.23242188 C27.15917969 28.97880859 27.12695312 27.72519531 27.09375 26.43359375 C27.0623291 24.69758911 27.0623291 24.69758911 27.03027344 22.92651367 C26.74958308 19.93613552 26.74958308 19.93613552 24.63769531 18.13793945 C21.72105637 16.61778194 19.72692114 16.60168294 16.484375 17.015625 C14.70822085 18.0841558 14.70822085 18.0841558 13.484375 20.015625 C12.97719444 23.0144863 12.97719444 23.0144863 12.97265625 26.43359375 C12.93720703 27.68720703 12.90175781 28.94082031 12.86523438 30.23242188 C12.84267578 31.54275391 12.82011719 32.85308594 12.796875 34.203125 C12.76369834 35.53844513 12.72920834 36.87373332 12.69335938 38.20898438 C12.61075991 41.47756325 12.54589496 44.74658144 12.484375 48.015625 C4.234375 48.015625 -4.015625 48.015625 -12.515625 48.015625 C-12.55300781 45.94539063 -12.59039062 43.87515625 -12.62890625 41.7421875 C-12.67757338 39.7398829 -12.72634329 37.73757929 -12.77807617 35.73535156 C-12.81135373 34.34256411 -12.83937697 32.94964089 -12.86206055 31.55664062 C-12.89555189 29.55571122 -12.94943805 27.55515579 -13.00390625 25.5546875 C-13.03009033 24.35021973 -13.05627441 23.14575195 -13.08325195 21.90478516 C-13.29727661 20.47465088 -13.29727661 20.47465088 -13.515625 19.015625 C-17.21977793 16.54618971 -19.13707005 16.54649411 -23.515625 17.015625 C-26.70062772 20.11903191 -26.92113682 22.76050728 -27.02734375 27.09375 C-27.06279297 28.25390625 -27.09824219 29.4140625 -27.13476562 30.609375 C-27.15732422 31.8159375 -27.17988281 33.0225 -27.203125 34.265625 C-27.23728516 35.48765625 -27.27144531 36.7096875 -27.30664062 37.96875 C-27.3890903 40.98405246 -27.45403471 43.99982436 -27.515625 47.015625 C-35.105625 47.015625 -42.695625 47.015625 -50.515625 47.015625 C-50.515625 32.165625 -50.515625 17.315625 -50.515625 2.015625 C-43.255625 2.015625 -35.995625 2.015625 -28.515625 2.015625 C-28.185625 4.325625 -27.855625 6.635625 -27.515625 9.015625 C-27.15210937 8.54511719 -26.78859375 8.07460938 -26.4140625 7.58984375 C-19.67952919 -0.75061673 -10.53660013 -4.12301744 0 0 Z " fill="#FAF9FA" transform="translate(72.515625,34.984375)"/>
<path d="M0 0 C7.92 0 15.84 0 24 0 C24.70125 2.3925 25.4025 4.785 26.125 7.25 C29.04066357 17.17947074 32.01787446 27.09032509 35 37 C39.61346511 24.83115 43.5119644 12.53109084 47 0 C54.92 0 62.84 0 71 0 C70.28121504 2.87513986 69.51166973 5.64672155 68.6171875 8.46484375 C68.34011963 9.33802246 68.06305176 10.21120117 67.77758789 11.11083984 C67.47973389 12.0436377 67.18187988 12.97643555 66.875 13.9375 C66.56876709 14.89865723 66.26253418 15.85981445 65.94702148 16.85009766 C62.722728 26.93104378 59.36755184 36.96607003 56 47 C42.14 47 28.28 47 14 47 C12.35 41.39 10.7 35.78 9 30 C7.26627562 24.72812534 5.49503898 19.47503042 3.6875 14.22851562 C3.35234375 13.24173828 3.0171875 12.25496094 2.671875 11.23828125 C2.3737793 10.37243408 2.07568359 9.50658691 1.76855469 8.61450195 C1 6 1 6 0 0 Z " fill="#F8F7F8" transform="translate(176,36)"/>
<path d="M0 0 C0 5.94 0 11.88 0 18 C4.29 18 8.58 18 13 18 C13 23.28 13 28.56 13 34 C8.71 34 4.42 34 0 34 C0 44.23 0 54.46 0 65 C-7.92 65 -15.84 65 -24 65 C-24 54.77 -24 44.54 -24 34 C-26.64 34 -29.28 34 -32 34 C-32 28.72 -32 23.44 -32 18 C-29.36 18 -26.72 18 -24 18 C-24 15.03 -24 12.06 -24 9 C-18.13409436 6.54075433 -12.26449028 4.08979209 -6.375 1.6875 C-5.57835937 1.36136719 -4.78171875 1.03523438 -3.9609375 0.69921875 C-2 0 -2 0 0 0 Z " fill="#F8F7F8" transform="translate(160,18)"/>
<path d="M0 0 C3.84526501 0.62779837 5.33865703 1.73322829 8.0625 4.5 C8.63012695 7.52441406 8.63012695 7.52441406 8.55078125 11.015625 C8.53466797 12.26601563 8.51855469 13.51640625 8.50195312 14.8046875 C8.46005859 16.10664062 8.41816406 17.40859375 8.375 18.75 C8.34116211 20.72613281 8.34116211 20.72613281 8.30664062 22.7421875 C8.24770787 25.99527581 8.15802864 29.24778062 8.0625 32.5 C3.1125 32.5 -1.8375 32.5 -6.9375 32.5 C-7.04521702 27.91604218 -7.12469721 23.33460364 -7.1875 18.75 C-7.22101563 17.44804688 -7.25453125 16.14609375 -7.2890625 14.8046875 C-7.30195312 13.55429688 -7.31484375 12.30390625 -7.328125 11.015625 C-7.34907227 9.86352539 -7.37001953 8.71142578 -7.39160156 7.52441406 C-6.68932425 2.84709613 -4.63600971 0.78910804 0 0 Z " fill="#20224F" transform="translate(91.9375,50.5)"/>
<path d="M0 0 C0.99 0 1.98 0 3 0 C3.6875 1.6875 3.6875 1.6875 4 4 C2.5625 6.75 2.5625 6.75 1 9 C1.66 9 2.32 9 3 9 C3 9.66 3 10.32 3 11 C10.26 11 17.52 11 25 11 C25.33 11.66 25.66 12.32 26 13 C16.1 13 6.2 13 -4 13 C-3.05610147 8.28050734 -1.73563661 4.45228522 0 0 Z " fill="#28214A" transform="translate(236,70)"/>
</svg>
