<?xml version="1.0" encoding="UTF-8"?>
<svg width="133.55mm" height="40.806mm" version="1.1" viewBox="0 0 133.55 40.806" xml:space="preserve" xmlns="http://www.w3.org/2000/svg">
<defs><linearGradient id="g1" x1="24.528" x2="158.08" y1="50.428" y2="50.428" gradientUnits="userSpaceOnUse"><stop stop-color="#471755" offset="0"/><stop stop-color="#aa80fb" offset="1"/></linearGradient></defs>
<g transform="translate(-24.528 -30.025)">
    <path d="m123.04 33.529-7.2742-2.25e-4s8.5107 22.199 12.331 31.847c1.2694 3.2062 5.4227 5.3499 8.871 5.3217 3.4132-0.0279 7.4246-2.1531 8.6936-5.3217 4.1289-10.31 12.419-31.847 12.419-31.847h-7.2742l-11.035 28.237s-0.91821 2.231-2.8039 2.231c-2.3914 0-3.2101-2.231-3.2101-2.231zm-78.109-3.5042a20.403 20.403 0 0 0-20.403 20.403 20.403 20.403 0 0 0 20.403 20.403 20.403 20.403 0 0 0 20.403-20.403 20.403 20.403 0 0 0-20.403-20.403zm0 6.5862a13.817 13.817 0 0 1 13.817 13.817 13.817 13.817 0 0 1-13.817 13.817 13.817 13.817 0 0 1-13.817-13.817 13.817 13.817 0 0 1 13.817-13.817zm46.617-3.1709v6.9194h19.871v-6.9194zm19.904 20.537h-6.5864s-0.30572 10.102-10.102 10.102c-10.151 0-10.102-10.102-10.102-10.102l-0.1101-12.088c-0.04429-4.8626-5.1002-8.25-9.248-8.25h-6.9304v6.3918h6.6644c1.8418 0 3.3245 1.3995 3.3245 3.3245l-2e-6 11.111s1.0457 16.199 16.402 16.199c15.89 0 16.689-16.689 16.689-16.689" fill="url(#g1)"/>
</g>
</svg>
